<svg width="1700" height="724" viewBox="0 0 1700 724" fill="none" xmlns="http://www.w3.org/2000/svg">
    <path fill-rule="evenodd" clip-rule="evenodd"
          d="M655.428 481.147C650.052 469.92 652.169 456.539 660.747 447.518L704.816 401.176C708.798 396.988 713.895 394.064 719.501 392.663C746.232 385.981 790.866 372.97 835.5 340.674C885.333 304.617 935.167 244.521 985 238.512C1034.83 232.502 1084.67 280.579 1134.5 322.646C1184.33 364.713 1234.17 400.77 1284 430.818C1333.83 460.866 1383.67 484.904 1433.5 484.904C1483.33 484.904 1533.17 460.866 1583 454.856C1632.83 448.847 1682.67 460.866 1732.5 430.818C1782.33 400.77 1832.17 328.655 1857.08 292.598C1864.71 281.567 1882 286.961 1882 300.369V520.083C1882 533.845 1870.84 545 1857.08 545C1832.17 545 1782.33 545 1732.5 545C1682.67 545 1632.83 545 1583 545C1533.17 545 1483.33 545 1433.5 545C1383.67 545 1333.83 545 1284 545C1234.17 545 1184.33 545 1134.5 545C1084.67 545 1034.83 545 985 545C935.167 545 885.333 545 835.5 545C785.667 545 735.833 545 710.917 545H704.898C693.349 545 682.826 538.371 677.839 527.955L655.428 481.147Z"
          fill="#001EFF"/>
    <path fill-rule="evenodd" clip-rule="evenodd"
          d="M381 497V555C395 591 421 402 448 438C475 474 501 375 528 357C555 339 581 303 608 291C635 279 661 291 688 315C715 339 741 375 768 381C795 387 821 363 848 363C875 363 901 387 928 381C955 375 981 339 1008 327C1035 315 1061 327 1088 309C1115 291 1141 243 1168 237C1195 231 1221 267 1248 273C1275 279 1301 255 1328 231C1355 207 1381 183 1408 177C1435 171 1461 183 1488 231C1515 279 1541 363 1555 405L1568 447V483H1555C1541 483 1515 483 1488 483C1461 483 1435 483 1408 483C1381 483 1355 483 1328 483C1301 483 1275 483 1248 483C1221 483 1195 483 1168 483C1141 483 1115 483 1088 483C1061 483 1035 483 1008 483C981 483 955 483 928 483C901 483 875 483 848 483C821 483 795 483 768 483C741 483 715 483 688 483C661 483 635 483 608 483C581 483 555 483 528 483C501 483 475 483 448 483C421 483 395 483 381 483H368L381 497Z"
          fill="#9CA5EC"/>
    <path fill-rule="evenodd" clip-rule="evenodd"
          d="M192 503.13L418.236 388.715C476.533 374.522 593.127 346.138 719.892 359.532C846.658 372.927 983.829 466.074 1096.88 423.115C1210.16 381.127 1299.56 241.004 1407.64 177.64C1515.72 114.277 1642.48 127.672 1705.75 133.883L1769.25 141.067L1820.34 350.937L1762.04 503.13C1703.74 517.322 1587.15 545.707 1470.55 574.092C1353.96 602.477 1237.36 630.862 1120.77 659.247C1004.18 687.632 887.581 716.017 770.986 744.402C654.392 772.787 537.797 801.172 479.5 815.364L421.203 829.557L192 503.13Z"
          fill="#4B5CDA" fill-opacity="0.5"/>
</svg>
