<svg width="1700" height="403" viewBox="0 0 1700 403" fill="none" xmlns="http://www.w3.org/2000/svg">
    <mask id="mask0" mask-type="alpha" maskUnits="userSpaceOnUse" x="0" y="0" width="1700" height="403">
        <rect width="1700" height="403" fill="#C4C4C4"/>
    </mask>
    <g mask="url(#mask0)">
        <path fill-rule="evenodd" clip-rule="evenodd"
              d="M655.428 429.147C650.052 417.92 652.169 404.539 660.747 395.518L704.816 349.176C708.798 344.988 713.895 342.064 719.501 340.663C746.232 333.981 790.866 320.97 835.5 288.674C885.333 252.617 935.167 192.521 985 186.512C1034.83 180.502 1084.67 228.579 1134.5 270.646C1184.33 312.713 1234.17 348.77 1284 378.818C1333.83 408.866 1383.67 432.904 1433.5 432.904C1483.33 432.904 1533.17 408.866 1583 402.856C1632.83 396.847 1682.67 408.866 1732.5 378.818C1782.33 348.77 1832.17 276.655 1857.08 240.598C1864.71 229.567 1882 234.961 1882 248.369V468.083C1882 481.845 1870.84 493 1857.08 493C1832.17 493 1782.33 493 1732.5 493C1682.67 493 1632.83 493 1583 493C1533.17 493 1483.33 493 1433.5 493C1383.67 493 1333.83 493 1284 493C1234.17 493 1184.33 493 1134.5 493C1084.67 493 1034.83 493 985 493C935.167 493 885.333 493 835.5 493C785.667 493 735.833 493 710.917 493H704.898C693.349 493 682.826 486.371 677.839 475.955L655.428 429.147Z"
              fill="#001EFF"/>
        <path fill-rule="evenodd" clip-rule="evenodd"
              d="M381 445V503C395 539 421 350 448 386C475 422 501 323 528 305C555 287 581 251 608 239C635 227 661 239 688 263C715 287 741 323 768 329C795 335 821 311 848 311C875 311 901 335 928 329C955 323 981 287 1008 275C1035 263 1061 275 1088 257C1115 239 1141 191 1168 185C1195 179 1221 215 1248 221C1275 227 1301 203 1328 179C1355 155 1381 131 1408 125C1435 119 1461 131 1488 179C1515 227 1541 311 1555 353L1568 395V431H1555C1541 431 1515 431 1488 431C1461 431 1435 431 1408 431C1381 431 1355 431 1328 431C1301 431 1275 431 1248 431C1221 431 1195 431 1168 431C1141 431 1115 431 1088 431C1061 431 1035 431 1008 431C981 431 955 431 928 431C901 431 875 431 848 431C821 431 795 431 768 431C741 431 715 431 688 431C661 431 635 431 608 431C581 431 555 431 528 431C501 431 475 431 448 431C421 431 395 431 381 431H368L381 445Z"
              fill="#9CA5EC"/>
        <path fill-rule="evenodd" clip-rule="evenodd"
              d="M192 451.13L418.236 336.715C476.533 322.522 593.127 294.138 719.892 307.532C846.658 320.927 983.829 414.074 1096.88 371.115C1210.16 329.127 1299.56 189.004 1407.64 125.64C1515.72 62.2771 1642.48 75.6719 1705.75 81.8835L1769.25 89.0666L1820.34 298.937L1762.04 451.13C1703.74 465.322 1587.15 493.707 1470.55 522.092C1353.96 550.477 1237.36 578.862 1120.77 607.247C1004.18 635.632 887.581 664.017 770.986 692.402C654.392 720.787 537.797 749.172 479.5 763.364L421.203 777.557L192 451.13Z"
              fill="#4B5CDA" fill-opacity="0.5"/>
    </g>
</svg>
