<svg width="20" height="20" viewBox="0 0 20 20" fill="none" xmlns="http://www.w3.org/2000/svg">
    <path d="M11.8323 10.0164L19.6199 2.2286C20.1267 1.72204 20.1267 0.902987 19.6199 0.39642C19.1133 -0.110147 18.2943 -0.110147 17.7877 0.39642L9.99989 8.18427L2.21229 0.39642C1.70548 -0.110147 0.88667 -0.110147 0.380103 0.39642C-0.126701 0.902987 -0.126701 1.72204 0.380103 2.2286L8.16771 10.0164L0.380103 17.8043C-0.126701 18.3109 -0.126701 19.1299 0.380103 19.6365C0.632556 19.8892 0.964494 20.0161 1.29619 20.0161C1.62789 20.0161 1.95959 19.8892 2.21229 19.6365L9.99989 11.8486L17.7877 19.6365C18.0404 19.8892 18.3721 20.0161 18.7038 20.0161C19.0355 20.0161 19.3672 19.8892 19.6199 19.6365C20.1267 19.1299 20.1267 18.3109 19.6199 17.8043L11.8323 10.0164Z"
          fill="#000"/>
</svg>
