<svg width="142" height="166" viewBox="0 0 142 166" fill="none" xmlns="http://www.w3.org/2000/svg">
    <path fill-rule="evenodd" clip-rule="evenodd" d="M72.3117 -1.30234L64.9206 3.26934C64.3493 2.698 64.0734 2.34504 63.8461 2.05433C63.7813 1.97145 63.7205 1.89363 63.6579 1.81726C62.6954 0.642897 61.3165 -0.190221 38.7357 -13.8335C31.8489 -17.9945 22.9899 -23.3472 11.569 -30.2644C5.43472 -33.9831 -2.39332 -33.0401 -7.46052 -27.9729C-7.55705 -27.8764 -7.64059 -27.7971 -7.7186 -27.7232C-7.76186 -27.6821 -7.80342 -27.6427 -7.84455 -27.6029C-8.84858 -26.6299 -9.59674 -25.3929 -28.6078 6.03891C-35.1397 16.8384 -43.8275 31.2025 -55.4224 50.3451C-56.112 51.4821 -55.7493 52.9599 -54.6114 53.6486C-53.4753 54.3355 -51.9956 53.9711 -51.3113 52.8376C-39.4047 33.1809 -30.57 18.58 -23.9995 7.72099C-5.4074 -23.0058 -4.94369 -23.7722 -4.30708 -24.347C-4.2908 -24.3617 -4.2744 -24.3763 -4.25759 -24.3913C-4.20095 -24.4416 -4.13955 -24.4962 -4.0617 -24.5741C-0.564997 -28.0708 4.84131 -28.721 9.07913 -26.1559L58.1641 3.57959C63.1823 6.60873 64.8988 13.1687 61.784 18.3145C57.0874 26.0665 14.8062 95.8704 10.0807 103.672C7.04806 108.696 0.485505 110.404 -4.65512 107.295C-17.0543 99.784 -26.3804 94.1431 -33.4088 89.892C-54.0516 77.4061 -54.8732 76.9092 -55.516 76.2405C-55.5427 76.2128 -55.569 76.1848 -55.5965 76.1556C-55.6498 76.0989 -55.7072 76.0378 -55.779 75.966C-59.2783 72.4667 -59.9268 67.0639 -57.36 62.826L-56.2903 61.0624C-55.6042 59.9271 -55.9669 58.4493 -57.1048 57.7606C-58.2375 57.0719 -59.7153 57.4346 -60.4049 58.5716L-61.472 60.3326C-65.9527 67.7289 -63.5459 77.2603 -56.2317 81.6729L-7.14589 111.404C-2.74464 114.073 2.52183 114.341 7.02096 112.413L9.10098 115.776L9.1036 115.775L12.5688 121.378C17.0767 128.675 26.6457 130.943 33.9555 126.423L118.836 73.9384C126.131 69.4332 128.401 59.8607 123.881 52.5518L120.415 46.948L120.416 46.9471L108.785 28.1369L93.6992 3.74041C89.1835 -3.56151 79.6189 -5.82332 72.3117 -1.30234ZM89.6108 6.26963L104.695 30.6653L68.4025 53.1076C67.2733 53.8051 66.9238 55.2873 67.6203 56.4191C68.3186 57.5473 69.8 57.8961 70.9291 57.1986L107.224 34.7563L113.798 45.388L28.6086 98.0631C27.4751 98.7614 27.129 100.242 27.829 101.372C28.5264 102.501 30.0069 102.852 31.1352 102.154L116.326 49.4763L119.789 55.0793C122.884 60.0775 121.394 66.7082 116.307 69.85L31.428 122.333C26.3879 125.452 19.7772 123.902 16.6598 118.851L13.1937 113.246C15.6121 111.751 17.444 110.62 18.8342 109.761C23.0361 107.167 23.2028 107.065 23.3329 106.927C23.3449 106.914 23.3566 106.901 23.3713 106.886C23.3778 106.879 23.3849 106.872 23.3928 106.864C25.3959 104.861 22.8448 101.626 20.4283 103.12L13.233 107.569C13.2637 107.529 13.2912 107.494 13.3169 107.461C13.3487 107.42 13.3777 107.384 13.4064 107.346C13.7821 106.86 14.1024 106.331 19.857 96.821C21.7779 93.6469 24.3043 89.4721 27.6402 83.9645L62.7497 62.2545C63.8824 61.5571 64.232 60.0748 63.5328 58.9457C62.8336 57.8148 61.3514 57.4652 60.2222 58.1644L33.1164 74.926L45.5232 54.4422C56.9167 47.3965 65.2478 42.2469 71.3415 38.4803C87.814 28.2984 87.9382 28.2217 88.0144 28.1117C88.0211 28.102 88.0275 28.0921 88.0447 28.0749C90.046 26.0735 87.495 22.8425 85.0759 24.3317L50.9976 45.4037L59.7556 30.9441C62.6952 29.1264 64.9072 27.7605 66.5745 26.7308C71.4958 23.6917 71.6721 23.5829 71.8106 23.4379C71.8268 23.4209 71.8425 23.4035 71.8651 23.3808C73.8674 21.3786 71.3154 18.1432 68.9006 19.6368L65.2292 21.9082L65.8951 20.807C68.3955 16.6793 68.787 11.7904 67.2375 7.48968L74.8409 2.78604C79.8977 -0.340979 86.4987 1.23826 89.6108 6.26963ZM9.61989 -9.66851L19.6241 -9.45962C21.5101 -9.41942 23.244 -8.36892 24.1521 -6.71627L28.9728 2.05302C29.8809 3.70568 29.838 5.73239 28.8618 7.34484L23.6775 15.9044C22.7057 17.5125 20.9298 18.4948 19.0385 18.4546C16.7065 18.4055 14.8965 18.3698 13.4841 18.342L13.4776 18.3418L13.4775 18.3418C9.00557 18.2537 8.52388 18.2442 8.0655 18.1359C8.01042 18.1229 7.95567 18.1085 7.89437 18.0923L7.89354 18.0921L7.81954 18.0727L2.92976 26.1437C1.95704 27.7509 0.182906 28.7332 -1.70746 28.6939L-11.7134 28.4832C-13.5985 28.4439 -15.3333 27.3925 -16.2414 25.7416L-21.0613 16.9715C-21.9702 15.3197 -21.9274 13.2912 -20.9503 11.6796L-15.766 3.12011C-14.7889 1.50679 -13.0121 0.530579 -11.127 0.569907C-8.91813 0.616351 -7.1767 0.651019 -5.79751 0.678486L-5.79253 0.678578L-5.7924 0.678582C-1.07454 0.772507 -0.599241 0.781965 -0.147455 0.889865C-0.0970598 0.901904 -0.0469516 0.915166 0.00871864 0.9299L0.00956023 0.930127L0.0920062 0.951827L4.98092 -7.12004C5.95888 -8.73424 7.73651 -9.70958 9.61989 -9.66851ZM1.93273 10.8058L1.93267 10.8057L1.9324 10.8052C1.24825 9.56801 0.355007 7.95269 -0.807294 5.83812C-0.816981 5.82055 -0.8245 5.80416 -0.831522 5.78886L-0.831567 5.78875C-0.839969 5.77044 -0.847659 5.75367 -0.857491 5.73827C-0.963734 5.57191 -1.32021 5.56535 -5.52919 5.48786L-5.52928 5.48786L-5.53262 5.48779C-6.94934 5.46172 -8.8022 5.4276 -11.2284 5.37667L-11.2547 5.37595L-11.2547 5.37594C-11.287 5.37497 -11.3158 5.37409 -11.344 5.37762C-11.5748 5.40651 -11.7687 5.73035 -13.5479 8.70191C-14.3106 9.97595 -15.3648 11.7367 -16.8383 14.1696C-16.8487 14.1867 -16.8592 14.2014 -16.869 14.2151C-16.8808 14.2316 -16.8915 14.2468 -16.9 14.2631C-16.9913 14.4384 -16.8183 14.7512 -14.7868 18.425C-14.1003 19.6666 -13.2015 21.292 -12.0289 23.4256C-12.0236 23.4353 -12.0189 23.4446 -12.0146 23.4535C-12.011 23.4608 -12.0078 23.468 -12.0046 23.4749C-11.9963 23.493 -11.9886 23.5096 -11.9789 23.5248C-11.8728 23.6908 -11.5173 23.6974 -7.29148 23.7756L-7.28907 23.7757C-5.87423 23.8019 -4.02573 23.8361 -1.60783 23.8871C-1.56449 23.888 -1.52802 23.8905 -1.49244 23.886C-1.26234 23.857 -1.06922 23.5345 0.708839 20.5654C1.47193 19.2912 2.52694 17.5294 4.00209 15.0942C4.01246 15.0771 4.02287 15.0623 4.03259 15.0486L4.03265 15.0485C4.04435 15.032 4.05506 15.0169 4.06351 15.0006C4.15489 14.8243 3.98151 14.5107 1.93273 10.8058ZM24.784 4.40943C24.7761 4.3967 24.7678 4.38321 24.7595 4.36814C23.3879 1.87284 22.4077 0.0681759 21.6988 -1.23711L21.6987 -1.23727C20.0468 -4.27891 19.8677 -4.60873 19.6396 -4.64704C19.6118 -4.6517 19.5834 -4.65204 19.5515 -4.65244L19.5245 -4.65286C16.7299 -4.71162 14.704 -4.75973 13.2318 -4.79469L13.2317 -4.7947C9.56818 -4.8817 9.33374 -4.88727 9.21499 -4.7728C9.19906 -4.75745 9.1852 -4.73992 9.16543 -4.72015C9.10163 -4.65635 3.9549 3.85337 3.90945 3.93028C3.89235 3.95845 3.8755 3.98078 3.86187 4.00328C3.85767 4.01021 3.85377 4.01716 3.85027 4.0243C3.75896 4.2105 3.93443 4.52753 5.91222 8.10068L5.9124 8.10102C6.60494 9.35221 7.51845 11.0026 8.71884 13.1864C8.7285 13.2039 8.73601 13.2202 8.74303 13.2355C8.75146 13.2538 8.75918 13.2706 8.76904 13.286C8.87555 13.4526 9.23212 13.4591 13.4402 13.5366L13.4408 13.5366C14.8579 13.5627 16.7118 13.5968 19.1399 13.6478C19.313 13.6513 19.4773 13.5604 19.5647 13.4136C20.8607 11.2744 21.8453 9.65999 22.591 8.43749L22.591 8.43743C24.7093 4.96424 24.8981 4.65474 24.8147 4.46464C24.8065 4.44605 24.7958 4.42859 24.784 4.40943ZM-29.6697 38.8116C-31.9918 39.3823 -33.9521 40.8217 -35.1896 42.8668L-47.3271 62.9049C-49.8896 67.1348 -48.5393 72.6347 -44.3085 75.1962L-34.23 81.3017C-30.0097 83.858 -24.5064 82.5235 -21.9387 78.283L-9.80115 58.2449C-7.23958 54.0141 -8.58809 48.516 -12.8198 45.9536C-14.5671 44.8952 -16.0739 43.9588 -17.3935 43.1388L-17.3935 43.1387C-23.9121 39.0878 -25.8619 37.8762 -29.6697 38.8116ZM-26.0506 75.7914C-27.2357 77.7491 -29.7798 78.3757 -31.7392 77.1888L-41.8186 71.0843C-43.7763 69.8992 -44.402 67.3542 -43.216 65.3957L-39.999 60.0846C-35.21 62.9854 -31.7738 65.0681 -29.304 66.5651L-29.3002 66.5674L-29.2998 66.5676L-29.2994 66.5679C-23.1147 70.3165 -22.9954 70.3888 -22.8669 70.4365L-22.8592 70.4393L-22.8591 70.4393C-22.8479 70.4434 -22.8357 70.4479 -22.8187 70.455L-26.0506 75.7914ZM-33.8494 49.9261C-31.0491 45.2926 -30.8475 44.959 -30.5817 44.6883C-30.5717 44.6782 -30.5617 44.6681 -30.5514 44.6579L-30.5174 44.6245C-30.4994 44.6068 -30.4804 44.5882 -30.4598 44.5675C-29.1663 43.274 -27.0784 42.9376 -25.3891 43.961L-22.7698 45.5472L-31.3451 59.7053L-37.5074 55.9727C-35.951 53.4034 -34.7626 51.4371 -33.8501 49.9272L-33.8494 49.9261ZM-13.4333 52.6201C-13.1703 53.6942 -13.3407 54.8068 -13.914 55.7542L-20.3586 66.3937L-20.3871 66.37L-20.4126 66.3488C-20.5366 66.2471 -20.6752 66.1633 -22.8574 64.8442L-22.8616 64.8417L-22.8747 64.8338C-23.8564 64.2403 -25.2488 63.3985 -27.234 62.1961L-18.6578 48.0371C-18.1477 48.3462 -17.6779 48.62 -17.2467 48.8713C-15.0649 50.1428 -13.8704 50.8389 -13.4333 52.6201ZM6.45732 99.0441L6.45827 99.0438C6.55312 99.0079 6.61984 98.8977 25.9827 66.9217L25.9913 66.9075L25.9965 66.8988L25.9992 66.8944L26.001 66.8913L26.0064 66.8826L26.0092 66.8779L26.0111 66.8748C33.0637 55.228 42.6725 39.3598 55.7686 17.7385C56.4564 16.6033 56.0937 15.1254 54.9576 14.4385C53.8232 13.7498 52.3427 14.1133 51.6567 15.2486L2.67222 96.1186C1.20834 98.5351 4.43412 101.058 6.42674 99.0655L6.43203 99.0605L6.437 99.0561C6.44167 99.0521 6.4454 99.0497 6.44865 99.0479C6.4519 99.0461 6.45465 99.0451 6.45732 99.0441ZM-12.7543 93.2531C-13.8905 92.5662 -14.254 91.0875 -13.5662 89.9522C-12.8793 88.816 -11.3997 88.4533 -10.2644 89.1412L-6.08514 91.6721C-4.7541 92.4788 -4.52687 94.3246 -5.63155 95.4293C-6.39627 96.194 -7.6102 96.3697 -8.57505 95.7841L-12.7543 93.2531ZM-1.24889 88.3286C-0.561085 87.1933 -0.924651 85.7146 -2.0608 85.0277L-6.24005 82.4967C-7.37445 81.808 -8.85318 82.1716 -9.54011 83.3077C-10.2288 84.4421 -9.86523 85.9208 -8.72996 86.6086L-4.5507 89.1396C-3.42067 89.8239 -1.94106 89.47 -1.24889 88.3286ZM1.96323 78.3835C3.09937 79.0704 3.46294 80.5492 2.77513 81.6844C2.08383 82.8267 0.603341 83.1798 -0.526685 82.4955L-4.70595 79.9645C-5.84122 79.2767 -6.2039 77.7988 -5.5161 76.6636C-4.82917 75.5274 -3.35043 75.1638 -2.21603 75.8525L1.96323 78.3835ZM6.44251 75.4966C7.54807 74.3911 7.32083 72.5453 5.98892 71.7395L1.80877 69.2076C0.673495 68.5198 -0.80524 68.8834 -1.4913 70.0186C-2.17911 71.1539 -1.81641 72.6318 -0.681138 73.3196L3.49814 75.8506C4.46386 76.437 5.67779 76.2613 6.44251 75.4966ZM14.0377 58.4504C15.3687 59.2571 15.596 61.1029 14.4904 62.2084C13.7266 62.9723 12.5126 63.1479 11.5469 62.5633L7.36765 60.0323C6.23238 59.3445 5.86881 57.8657 6.55662 56.7305C7.24355 55.5943 8.72315 55.2316 9.85842 55.9194L14.0377 58.4504ZM10.5814 50.0855C9.89361 51.2208 10.2572 52.6995 11.3925 53.3873L15.5717 55.9183C16.5374 56.503 17.7505 56.3282 18.5152 55.5635C19.6208 54.458 19.3935 52.6121 18.0616 51.8064L13.8824 49.2754C12.7471 48.5876 11.2683 48.9494 10.5814 50.0855ZM15.4175 46.7422C14.2822 46.0544 13.9187 44.5756 14.6065 43.4404C15.2943 42.3051 16.7721 41.9424 17.9074 42.6302L22.0867 45.1612C23.222 45.849 23.5855 47.3277 22.8977 48.463C22.2064 49.6035 20.7259 49.9583 19.5968 49.2732L15.4175 46.7422ZM18.63 36.7967C17.9422 37.932 18.3057 39.4107 19.4419 40.0977L23.6211 42.6287C24.5869 43.2151 25.8008 43.0394 26.5655 42.2747C27.6702 41.17 27.4421 39.3233 26.111 38.5167L21.9318 35.9857C20.7965 35.2979 19.3178 35.6615 18.63 36.7967ZM27.5932 26.6397C26.458 25.9518 26.0944 24.4731 26.7831 23.3387C27.4709 22.2017 28.9487 21.839 30.0849 22.5277L34.2632 25.0596C35.5952 25.8653 35.8215 27.712 34.7168 28.8167C33.953 29.5805 32.7391 29.7562 31.7725 29.1706L27.5932 26.6397ZM30.8071 16.6946C30.1193 17.8298 30.482 19.3077 31.6173 19.9955L35.7965 22.5265C36.9292 23.2134 38.4088 22.8542 39.0975 21.7163C39.7853 20.5811 39.4226 19.1032 38.2873 18.4154L34.1089 15.8835C32.9728 15.1949 31.4949 15.5575 30.8071 16.6946ZM35.6421 13.3506C34.5068 12.6628 34.1441 11.1849 34.8319 10.0496C35.5188 8.9135 36.9967 8.5508 38.1328 9.23948L42.3121 11.7705C43.4474 12.4583 43.8101 13.9361 43.1223 15.0714C42.4336 16.2093 40.9548 16.5694 39.8213 15.8816L35.6421 13.3506ZM47.1471 8.42648C47.8349 7.29121 47.4722 5.81335 46.3369 5.12554L42.1576 2.59456C41.0224 1.90675 39.5428 2.26944 38.8567 3.40471C38.1689 4.53998 38.5316 6.01784 39.6669 6.70565L43.8453 9.23751C44.9797 9.92444 46.4575 9.56525 47.1471 8.42648ZM30.796 116.325C29.6669 117.022 28.1855 116.673 27.4881 115.544C26.7898 114.414 27.1385 112.933 28.2685 112.234L108.685 62.5098C109.814 61.8124 111.296 62.1619 111.994 63.2911C112.591 64.2577 112.421 65.4839 111.651 66.2538C111.635 66.27 111.632 66.2775 111.629 66.2848C111.57 66.417 111.386 66.4934 30.796 116.325Z" fill="#F4F4FF"/>
</svg>
