<svg width="13" height="18" viewBox="0 0 13 18" fill="none" xmlns="http://www.w3.org/2000/svg">
    <path d="M2.41455 9.62158C2.84131 9.26969 3.34294 8.9515 3.91943 8.66699C4.50342 8.38249 5.25212 8.07178 6.16553 7.73486H0.224609V6.26367H8.78223C9.18652 5.83691 9.38867 5.2679 9.38867 4.55664C9.38867 3.80046 9.11165 3.21273 8.55762 2.79346C8.01107 2.37419 7.25114 2.16455 6.27783 2.16455C5.17725 2.16455 3.99805 2.45654 2.74023 3.04053L2.08887 1.26611C3.39909 0.652181 4.78044 0.345215 6.23291 0.345215C7.79769 0.345215 9.06299 0.723307 10.0288 1.47949C10.9946 2.23568 11.4775 3.25391 11.4775 4.53418C11.4775 5.19303 11.384 5.76953 11.1968 6.26367H12.3984V7.73486H10.231C9.55713 8.37874 8.56136 8.93652 7.24365 9.4082L6.6709 9.62158H12.3984V11.0928H3.86328C3.3916 11.5195 3.15576 12.0848 3.15576 12.7886C3.15576 13.6121 3.46273 14.2598 4.07666 14.7314C4.69808 15.2031 5.62272 15.439 6.85059 15.439C8.24316 15.439 9.778 15.0758 11.4551 14.3496V16.3374C10.9385 16.592 10.2871 16.8053 9.50098 16.9775C8.71484 17.1423 7.86133 17.2246 6.94043 17.2246C5.10612 17.2246 3.66862 16.8128 2.62793 15.9893C1.59473 15.1657 1.07812 14.0389 1.07812 12.6089C1.07812 12.0848 1.16423 11.5794 1.33643 11.0928H0.224609V9.62158H2.41455Z" fill="#59667B"/>
</svg>
