<svg width="425" height="144" viewBox="0 0 425 144" fill="none" xmlns="http://www.w3.org/2000/svg">
    <path fill-rule="evenodd" clip-rule="evenodd" d="M145.812 176.83C141.464 167.747 143.176 156.922 150.115 149.625L155.035 144.451C159.017 140.264 164.144 137.412 169.698 135.817C179.059 133.128 191.898 128.397 204.738 119.107C222.179 106.487 239.62 85.4546 257.061 83.3513C274.502 81.248 291.943 98.0743 309.384 112.797C326.825 127.52 344.266 140.14 361.707 150.656C379.148 161.173 396.59 169.586 414.031 169.586C431.472 169.586 448.913 161.173 466.354 159.069C483.795 156.966 501.236 161.173 518.677 150.656C536.118 140.14 553.559 114.901 562.28 102.281C564.948 98.4202 571 100.308 571 105.001V181.898C571 186.714 567.096 190.619 562.28 190.619C553.559 190.619 536.118 190.619 518.677 190.619C501.236 190.619 483.795 190.619 466.354 190.619C448.913 190.619 431.472 190.619 414.031 190.619C396.59 190.619 379.148 190.619 361.707 190.619C344.266 190.619 326.825 190.619 309.384 190.619C291.943 190.619 274.502 190.619 257.061 190.619C239.62 190.619 222.179 190.619 204.738 190.619C187.297 190.619 169.855 190.619 161.135 190.619C155.806 190.619 150.95 187.56 148.648 182.753L145.812 176.83Z" fill="#001EFF"/>
    <path fill-rule="evenodd" clip-rule="evenodd" d="M45.667 173.819V194.119C50.5669 206.718 59.6666 140.57 69.1163 153.17C78.5659 165.769 87.6656 131.121 97.1153 124.821C106.565 118.521 115.665 105.921 125.114 101.722C134.564 97.5218 143.664 101.722 153.113 110.121C162.563 118.521 171.663 131.121 181.113 133.221C190.562 135.321 199.662 126.921 209.112 126.921C218.561 126.921 227.661 135.321 237.111 133.221C246.56 131.121 255.66 118.521 265.11 114.321C274.559 110.121 283.659 114.321 293.109 108.021C302.558 101.722 311.658 84.9222 321.108 82.8223C330.558 80.7223 339.657 93.3219 349.107 95.4218C358.557 97.5218 367.656 89.122 377.106 80.7223C386.556 72.3226 395.655 63.9229 405.105 61.823C414.555 59.723 423.654 63.9229 433.104 80.7223C442.554 97.5218 451.654 126.921 456.553 141.62L461.103 156.32V168.919H456.553C451.654 168.919 442.554 168.919 433.104 168.919C423.654 168.919 414.555 168.919 405.105 168.919C395.655 168.919 386.556 168.919 377.106 168.919C367.656 168.919 358.557 168.919 349.107 168.919C339.657 168.919 330.558 168.919 321.108 168.919C311.658 168.919 302.558 168.919 293.109 168.919C283.659 168.919 274.559 168.919 265.11 168.919C255.66 168.919 246.56 168.919 237.111 168.919C227.661 168.919 218.561 168.919 209.112 168.919C199.662 168.919 190.562 168.919 181.113 168.919C171.663 168.919 162.563 168.919 153.113 168.919C143.664 168.919 134.564 168.919 125.114 168.919C115.665 168.919 106.565 168.919 97.1153 168.919C87.6656 168.919 78.5659 168.919 69.1163 168.919C59.6666 168.919 50.5669 168.919 45.667 168.919H41.1172L45.667 173.819Z" fill="#9CA5EC"/>
    <path fill-rule="evenodd" clip-rule="evenodd" d="M-20.4809 175.965L58.699 135.921C79.1024 130.953 119.909 121.019 164.275 125.707C208.642 130.395 256.65 162.995 296.215 147.96C335.863 133.265 367.152 84.2235 404.978 62.0471C442.805 39.8706 487.171 44.5587 509.313 46.7326L531.538 49.2467L549.42 122.699L529.015 175.965C508.611 180.932 467.805 190.866 426.998 200.801C386.191 210.735 345.385 220.669 304.578 230.604C263.771 240.538 222.964 250.473 182.158 260.407C141.351 270.341 100.544 280.276 80.1407 285.243L59.7374 290.21L-20.4809 175.965Z" fill="#4B5CDA" fill-opacity="0.5"/>
</svg>
