<svg width="1314" height="168" viewBox="0 0 1314 168" fill="none" xmlns="http://www.w3.org/2000/svg">
    <mask id="mask0" mask-type="alpha" maskUnits="userSpaceOnUse" x="0" y="0" width="1314" height="168">
        <rect width="1314" height="168" rx="10" fill="white"/>
    </mask>
    <g mask="url(#mask0)">
        <path opacity="0.5" fill-rule="evenodd" clip-rule="evenodd" d="M537.185 -11.5495L537.687 -41.4199C530.76 -60.0816 515.684 37.0291 502.037 18.2546C488.389 -0.519974 474.091 50.2401 459.977 59.276C445.863 68.3118 432.109 86.6265 418.047 92.5723C403.984 98.5181 390.646 92.1124 376.895 79.5179C363.143 66.9234 350.013 48.1575 336.106 44.8332C322.199 41.5089 308.549 53.6434 294.59 53.4091C280.632 53.1748 267.397 40.589 253.386 43.4448C239.376 46.3005 225.623 64.6152 211.56 70.561C197.497 76.5068 184.159 70.1011 170.045 79.1369C155.93 88.1728 142.074 112.667 128.063 115.523C114.052 118.379 100.921 99.6131 87.0145 96.2888C73.1075 92.9644 59.4581 105.099 45.2918 117.225C31.1255 129.351 17.4762 141.485 3.46544 144.341C-10.5453 147.197 -23.8834 140.791 -37.4274 115.836C-50.9714 90.8818 -63.6871 47.3956 -70.562 25.6438L-76.9199 3.90068L-76.6087 -14.6396L-69.8877 -14.5268C-62.6498 -14.4053 -49.2079 -14.1797 -35.249 -13.9454C-21.2902 -13.7111 -7.84835 -13.4855 6.11056 -13.2512C20.0694 -13.0169 33.5113 -12.7913 47.4701 -12.557C61.429 -12.3227 74.8709 -12.0971 88.8297 -11.8628C102.789 -11.6285 116.23 -11.4029 130.189 -11.1686C144.148 -10.9343 157.59 -10.7087 171.549 -10.4744C185.508 -10.2401 198.95 -10.0145 212.909 -9.78017C226.867 -9.54588 240.309 -9.32026 254.268 -9.08597C268.227 -8.85167 281.669 -8.62606 295.628 -8.39177C309.587 -8.15747 323.028 -7.93186 336.987 -7.69756C350.946 -7.46327 364.388 -7.23765 378.347 -7.00336C392.306 -6.76907 405.748 -6.54345 419.707 -6.30916C433.665 -6.07487 447.107 -5.84925 461.066 -5.61496C475.025 -5.38066 488.467 -5.15505 502.426 -4.92076C516.385 -4.68646 529.827 -4.46085 537.064 -4.33936L543.785 -4.22655L537.185 -11.5495Z" fill="#202E2B"/>
        <path opacity="0.5" fill-rule="evenodd" clip-rule="evenodd" d="M634.443 -12.9011L516.623 44.222C486.396 51.0457 425.941 64.693 360.595 56.6772C295.249 48.6614 225.222 -0.628521 166.472 20.5758C107.609 41.2763 60.2282 112.861 3.86698 144.645C-52.4942 176.429 -117.84 168.413 -150.456 164.657L-183.186 160.397L-207.751 51.5778L-176.325 -26.5094C-146.097 -33.3331 -85.6418 -46.9804 -25.1864 -60.6278C35.269 -74.2752 95.7244 -87.9226 156.18 -101.57C216.635 -115.217 277.091 -128.865 337.546 -142.512C398.001 -156.16 458.457 -169.807 488.685 -176.631L518.912 -183.454L634.443 -12.9011Z" fill="#081714"/>
    </g>
</svg>
