<svg width="13" height="13" viewBox="0 0 13 13" fill="none" xmlns="http://www.w3.org/2000/svg">
    <path d="M9.481 0H3.51898C1.57858 0 0 1.57858 0 3.51898V9.4811C0 11.4214 1.57858 13 3.51898 13H9.4811C11.4214 13 13 11.4214 13 9.4811V3.51898C13 1.57858 11.4214 0 9.481 0V0ZM6.49999 10.0546C4.53995 10.0546 2.94541 8.46002 2.94541 6.49999C2.94541 4.53995 4.53995 2.94541 6.49999 2.94541C8.46002 2.94541 10.0546 4.53995 10.0546 6.49999C10.0546 8.46002 8.46002 10.0546 6.49999 10.0546ZM10.1396 3.78369C9.56035 3.78369 9.08923 3.31258 9.08923 2.73336C9.08923 2.15413 9.56035 1.68292 10.1396 1.68292C10.7188 1.68292 11.19 2.15413 11.19 2.73336C11.19 3.31258 10.7188 3.78369 10.1396 3.78369Z" fill="white"/>
    <path d="M6.50047 3.70752C4.96077 3.70752 3.70801 4.96019 3.70801 6.49999C3.70801 8.03969 4.96077 9.29245 6.50047 9.29245C8.04027 9.29245 9.29294 8.03969 9.29294 6.49999C9.29294 4.96019 8.04027 3.70752 6.50047 3.70752Z" fill="white"/>
    <path d="M10.1398 2.44513C9.9809 2.44513 9.85156 2.57446 9.85156 2.73335C9.85156 2.89224 9.9809 3.02157 10.1398 3.02157C10.2988 3.02157 10.4281 2.89234 10.4281 2.73335C10.4281 2.57436 10.2988 2.44513 10.1398 2.44513Z" fill="white"/>
</svg>
