<svg width="121" height="29" viewBox="0 0 121 29" fill="none" xmlns="http://www.w3.org/2000/svg">
    <circle cx="92.5" cy="14.5" r="1.5" fill="#081714"/>
    <path d="M31.998 11.959V17.0176C32.291 17.2324 32.5872 17.3919 32.8867 17.4961C33.1927 17.5938 33.5182 17.6426 33.8633 17.6426C34.7812 17.6426 35.5039 17.3626 36.0312 16.8027C36.5586 16.2363 36.8223 15.4616 36.8223 14.4785C36.8223 13.502 36.5586 12.737 36.0312 12.1836C35.5039 11.6237 34.7812 11.3438 33.8633 11.3438C33.5182 11.3438 33.1927 11.3926 32.8867 11.4902C32.5872 11.5879 32.291 11.7441 31.998 11.959ZM30.1816 23.541V9.97656H31.998V10.4844C32.3366 10.2435 32.6947 10.0677 33.0723 9.95703C33.4499 9.83984 33.8665 9.78125 34.3223 9.78125C35.6243 9.78125 36.6855 10.2174 37.5059 11.0898C38.3262 11.9622 38.7363 13.0918 38.7363 14.4785C38.7363 15.8652 38.3262 16.9948 37.5059 17.8672C36.6855 18.7396 35.6243 19.1758 34.3223 19.1758C33.8535 19.1758 33.4303 19.1204 33.0527 19.0098C32.6816 18.9056 32.3301 18.7363 31.998 18.502V23.541H30.1816ZM41.793 14.4785C41.793 15.3184 42.0762 16.0345 42.6426 16.627C43.209 17.2194 43.8926 17.5156 44.6934 17.5156C45.4876 17.5156 46.168 17.2194 46.7344 16.627C47.3073 16.028 47.5938 15.3118 47.5938 14.4785C47.5938 13.6517 47.3105 12.9421 46.7441 12.3496C46.1777 11.7572 45.4941 11.4609 44.6934 11.4609C43.8926 11.4609 43.209 11.7572 42.6426 12.3496C42.0762 12.9421 41.793 13.6517 41.793 14.4785ZM39.9082 14.4785C39.9082 13.1699 40.3737 12.0599 41.3047 11.1484C42.2357 10.237 43.3717 9.78125 44.7129 9.78125C45.3444 9.78125 45.9466 9.90169 46.5195 10.1426C47.099 10.377 47.6165 10.7155 48.0723 11.1582C48.5345 11.627 48.8861 12.1413 49.127 12.7012C49.3678 13.2611 49.4883 13.8535 49.4883 14.4785C49.4883 15.097 49.3646 15.6992 49.1172 16.2852C48.8698 16.8711 48.5215 17.3822 48.0723 17.8184C47.6165 18.2676 47.1022 18.6061 46.5293 18.834C45.9629 19.0618 45.3574 19.1758 44.7129 19.1758C43.3717 19.1758 42.2357 18.7201 41.3047 17.8086C40.3737 16.8971 39.9082 15.7871 39.9082 14.4785ZM53.0527 11.959V17.0176C53.3457 17.2324 53.6419 17.3919 53.9414 17.4961C54.2474 17.5938 54.5729 17.6426 54.918 17.6426C55.8359 17.6426 56.5586 17.3626 57.0859 16.8027C57.6133 16.2363 57.877 15.4616 57.877 14.4785C57.877 13.502 57.6133 12.737 57.0859 12.1836C56.5586 11.6237 55.8359 11.3438 54.918 11.3438C54.5729 11.3438 54.2474 11.3926 53.9414 11.4902C53.6419 11.5879 53.3457 11.7441 53.0527 11.959ZM51.2363 23.541V9.97656H53.0527V10.4844C53.3913 10.2435 53.7493 10.0677 54.127 9.95703C54.5046 9.83984 54.9212 9.78125 55.377 9.78125C56.679 9.78125 57.7402 10.2174 58.5605 11.0898C59.3809 11.9622 59.791 13.0918 59.791 14.4785C59.791 15.8652 59.3809 16.9948 58.5605 17.8672C57.7402 18.7396 56.679 19.1758 55.377 19.1758C54.9082 19.1758 54.485 19.1204 54.1074 19.0098C53.7363 18.9056 53.3848 18.7363 53.0527 18.502V23.541H51.2363ZM62.8477 14.4785C62.8477 15.3184 63.1309 16.0345 63.6973 16.627C64.2637 17.2194 64.9473 17.5156 65.748 17.5156C66.5423 17.5156 67.2227 17.2194 67.7891 16.627C68.362 16.028 68.6484 15.3118 68.6484 14.4785C68.6484 13.6517 68.3652 12.9421 67.7988 12.3496C67.2324 11.7572 66.5488 11.4609 65.748 11.4609C64.9473 11.4609 64.2637 11.7572 63.6973 12.3496C63.1309 12.9421 62.8477 13.6517 62.8477 14.4785ZM60.9629 14.4785C60.9629 13.1699 61.4284 12.0599 62.3594 11.1484C63.2904 10.237 64.4264 9.78125 65.7676 9.78125C66.3991 9.78125 67.0013 9.90169 67.5742 10.1426C68.1536 10.377 68.6712 10.7155 69.127 11.1582C69.5892 11.627 69.9408 12.1413 70.1816 12.7012C70.4225 13.2611 70.543 13.8535 70.543 14.4785C70.543 15.097 70.4193 15.6992 70.1719 16.2852C69.9245 16.8711 69.5762 17.3822 69.127 17.8184C68.6712 18.2676 68.1569 18.6061 67.584 18.834C67.0176 19.0618 66.4121 19.1758 65.7676 19.1758C64.4264 19.1758 63.2904 18.7201 62.3594 17.8086C61.4284 16.8971 60.9629 15.7871 60.9629 14.4785ZM72.3105 19V5.33789H74.1074V19H72.3105ZM76.4707 19V9.97656H78.2676V11.0801C78.7168 10.6504 79.1628 10.3379 79.6055 10.1426C80.0547 9.94076 80.5365 9.83984 81.0508 9.83984C82.0273 9.83984 82.7956 10.123 83.3555 10.6895C83.9219 11.2559 84.2051 12.0339 84.2051 13.0234V19H82.4082V13.4824C82.4082 12.7533 82.252 12.2161 81.9395 11.8711C81.6335 11.5195 81.1549 11.3438 80.5039 11.3438C80.0417 11.3438 79.6348 11.4349 79.2832 11.6172C78.9382 11.793 78.5996 12.0859 78.2676 12.4961V19H76.4707ZM86.3926 7.32031C86.3926 7.03385 86.4902 6.79297 86.6855 6.59766C86.8809 6.40234 87.1217 6.30469 87.4082 6.30469C87.6947 6.30469 87.9355 6.40234 88.1309 6.59766C88.3262 6.79297 88.4238 7.03385 88.4238 7.32031C88.4238 7.60677 88.3262 7.84766 88.1309 8.04297C87.9355 8.23828 87.6947 8.33594 87.4082 8.33594C87.1217 8.33594 86.8809 8.23828 86.6855 8.04297C86.4902 7.84766 86.3926 7.60677 86.3926 7.32031ZM86.5098 19V9.97656H88.3066V19H86.5098ZM95.709 19V9.97656H97.5059V11.0801C97.9551 10.6504 98.401 10.3379 98.8438 10.1426C99.293 9.94076 99.7747 9.83984 100.289 9.83984C100.953 9.83984 101.507 9.96354 101.949 10.2109C102.398 10.4518 102.776 10.8359 103.082 11.3633C103.635 10.8164 104.153 10.4258 104.635 10.1914C105.123 9.95703 105.641 9.83984 106.188 9.83984C107.171 9.83984 107.945 10.123 108.512 10.6895C109.085 11.2559 109.371 12.0339 109.371 13.0234V19H107.545V13.4824C107.545 12.7467 107.392 12.2064 107.086 11.8613C106.786 11.5163 106.314 11.3438 105.67 11.3438C105.195 11.3438 104.781 11.4349 104.43 11.6172C104.078 11.793 103.736 12.0859 103.404 12.4961V19H101.646V13.4824C101.646 12.7533 101.49 12.2161 101.178 11.8711C100.872 11.5195 100.393 11.3438 99.7422 11.3438C99.2799 11.3438 98.873 11.4349 98.5215 11.6172C98.1764 11.793 97.8379 12.0859 97.5059 12.4961V19H95.709ZM117.809 16.998V11.9199C117.516 11.7116 117.216 11.5586 116.91 11.4609C116.604 11.3568 116.275 11.3047 115.924 11.3047C115.006 11.3047 114.283 11.5846 113.756 12.1445C113.229 12.7044 112.965 13.4759 112.965 14.459C112.965 15.4421 113.229 16.2168 113.756 16.7832C114.283 17.3431 115.006 17.623 115.924 17.623C116.275 17.623 116.604 17.5742 116.91 17.4766C117.216 17.3724 117.516 17.2129 117.809 16.998ZM117.809 18.502C117.477 18.7298 117.118 18.8991 116.734 19.0098C116.357 19.1204 115.934 19.1758 115.465 19.1758C114.163 19.1758 113.098 18.7396 112.271 17.8672C111.451 16.9948 111.041 15.8652 111.041 14.4785C111.041 13.0918 111.451 11.9622 112.271 11.0898C113.098 10.2174 114.163 9.78125 115.465 9.78125C115.921 9.78125 116.34 9.83984 116.725 9.95703C117.109 10.0677 117.47 10.2435 117.809 10.4844V5.33789H119.605V19H117.809V18.502Z" fill="#081714"/>
    <path fill-rule="evenodd" clip-rule="evenodd" d="M-3.64791e-06 22.8636L-1.60937e-06 11.2045C-7.20541e-07 6.12101 4.12101 2 9.20454 2L13.2955 2C18.379 2 22.5 6.12102 22.5 11.2045L22.5 13.6591C22.5 18.7426 18.379 22.8636 13.2954 22.8636L-3.64791e-06 22.8636ZM6.19774 10.5909C6.48202 9.19044 7.72018 8.13636 9.20454 8.13636L13.2955 8.13636C14.99 8.13637 16.3636 9.51004 16.3636 11.2045L16.3636 13.6591C16.3636 15.3536 14.99 16.7273 13.2954 16.7273L6.13636 16.7273L6.13636 11.2045C6.13636 10.9944 6.15749 10.7892 6.19774 10.5909Z" fill="black"/>
    <path fill-rule="evenodd" clip-rule="evenodd" d="M-3.64791e-06 22.8636L-1.60937e-06 11.2045C-7.20541e-07 6.12101 4.12101 2 9.20454 2L13.2955 2C18.379 2 22.5 6.12102 22.5 11.2045L22.5 13.6591C22.5 18.7426 18.379 22.8636 13.2954 22.8636L-3.64791e-06 22.8636ZM6.19774 10.5909C6.48202 9.19044 7.72018 8.13636 9.20454 8.13636L13.2955 8.13636C14.99 8.13637 16.3636 9.51004 16.3636 11.2045L16.3636 13.6591C16.3636 15.3536 14.99 16.7273 13.2954 16.7273L6.13636 16.7273L6.13636 11.2045C6.13636 10.9944 6.15749 10.7892 6.19774 10.5909Z" fill="url(#paint0_linear)"/>
    <path fill-rule="evenodd" clip-rule="evenodd" d="M-3.64791e-06 22.8636L-1.60937e-06 11.2045C-7.20541e-07 6.12101 4.12101 2 9.20454 2L13.2955 2C18.379 2 22.5 6.12102 22.5 11.2045L22.5 13.6591C22.5 18.7426 18.379 22.8636 13.2954 22.8636L-3.64791e-06 22.8636ZM6.19774 10.5909C6.48202 9.19044 7.72018 8.13636 9.20454 8.13636L13.2955 8.13636C14.99 8.13637 16.3636 9.51004 16.3636 11.2045L16.3636 13.6591C16.3636 15.3536 14.99 16.7273 13.2954 16.7273L6.13636 16.7273L6.13636 11.2045C6.13636 10.9944 6.15749 10.7892 6.19774 10.5909Z" fill="url(#paint1_linear)"/>
    <path d="M4.70165e-07 22.7C2.105e-07 26.1794 2.82061 29 6.3 29L9.75 29C10.827 29 11.7 28.127 11.7 27.05L11.7 22.7L5.85 22.7L4.70165e-07 22.7Z" fill="#C4C4C4"/>
    <path d="M4.70165e-07 22.7C2.105e-07 26.1794 2.82061 29 6.3 29L9.75 29C10.827 29 11.7 28.127 11.7 27.05L11.7 22.7L5.85 22.7L4.70165e-07 22.7Z" fill="url(#paint2_linear)"/>
    <path d="M4.70165e-07 22.7C2.105e-07 26.1794 2.82061 29 6.3 29L9.75 29C10.827 29 11.7 28.127 11.7 27.05L11.7 22.7L5.85 22.7L4.70165e-07 22.7Z" fill="url(#paint3_linear)"/>
    <mask id="mask0" mask-type="alpha" maskUnits="userSpaceOnUse" x="0" y="2" width="23" height="21">
        <path fill-rule="evenodd" clip-rule="evenodd" d="M-3.64791e-06 22.8636L-1.60937e-06 11.2045C-7.20541e-07 6.12101 4.12101 2 9.20454 2L13.2955 2C18.379 2 22.5 6.12102 22.5 11.2045L22.5 13.6591C22.5 18.7426 18.379 22.8636 13.2954 22.8636L-3.64791e-06 22.8636ZM6.19774 10.5909C6.48202 9.19044 7.72018 8.13636 9.20454 8.13636L13.2955 8.13636C14.99 8.13636 16.3636 9.51004 16.3636 11.2045L16.3636 13.6591C16.3636 15.3536 14.99 16.7273 13.2954 16.7273L6.13636 16.7273L6.13636 11.2045C6.13636 10.9944 6.15749 10.7892 6.19774 10.5909Z" fill="black"/>
        <path fill-rule="evenodd" clip-rule="evenodd" d="M-3.64791e-06 22.8636L-1.60937e-06 11.2045C-7.20541e-07 6.12101 4.12101 2 9.20454 2L13.2955 2C18.379 2 22.5 6.12102 22.5 11.2045L22.5 13.6591C22.5 18.7426 18.379 22.8636 13.2954 22.8636L-3.64791e-06 22.8636ZM6.19774 10.5909C6.48202 9.19044 7.72018 8.13636 9.20454 8.13636L13.2955 8.13636C14.99 8.13636 16.3636 9.51004 16.3636 11.2045L16.3636 13.6591C16.3636 15.3536 14.99 16.7273 13.2954 16.7273L6.13636 16.7273L6.13636 11.2045C6.13636 10.9944 6.15749 10.7892 6.19774 10.5909Z" fill="url(#paint4_linear)"/>
    </mask>
    <g mask="url(#mask0)">
        <path d="M18.6382 -4.95457C6.03633 0.376202 -14.8251 14.0468 2.5445 26.083C1.42576 23.4656 3.07828 13.5938 18.6382 -4.95457Z" fill="url(#paint5_linear)"/>
        <path d="M18.6382 -4.95457C6.03633 0.376202 -14.8251 14.0468 2.5445 26.083C1.42576 23.4656 3.07828 13.5938 18.6382 -4.95457Z" fill="url(#paint6_linear)"/>
        <path d="M28.5842 5.02076C15.0789 7.21941 -8.42408 15.5675 5.60554 31.3707C5.13766 28.563 9.07836 19.3622 28.5842 5.02076Z" fill="url(#paint7_linear)"/>
        <path d="M28.5842 5.02076C15.0789 7.21941 -8.42408 15.5675 5.60554 31.3707C5.13766 28.563 9.07836 19.3622 28.5842 5.02076Z" fill="url(#paint8_linear)"/>
    </g>
    <defs>
        <linearGradient id="paint0_linear" x1="15.762" y1="9.14706" x2="6.07833" y2="16.6524" gradientUnits="userSpaceOnUse">
            <stop stop-color="#008100"/>
            <stop offset="1" stop-color="#67B700"/>
        </linearGradient>
        <linearGradient id="paint1_linear" x1="-1.82395e-06" y1="12.4318" x2="22.5" y2="12.4318" gradientUnits="userSpaceOnUse">
            <stop stop-color="#FC1414"/>
            <stop offset="1" stop-color="#4B5CDA"/>
        </linearGradient>
        <linearGradient id="paint2_linear" x1="11.0118" y1="28.2588" x2="3.80877" y2="19.5499" gradientUnits="userSpaceOnUse">
            <stop stop-color="#008100"/>
            <stop offset="1" stop-color="#67B700"/>
        </linearGradient>
        <linearGradient id="paint3_linear" x1="2.35082e-07" y1="25.85" x2="11.7" y2="25.85" gradientUnits="userSpaceOnUse">
            <stop stop-color="#FC1414"/>
            <stop offset="1" stop-color="#4B5CDA"/>
        </linearGradient>
        <linearGradient id="paint4_linear" x1="15.762" y1="9.14706" x2="6.07833" y2="16.6524" gradientUnits="userSpaceOnUse">
            <stop stop-color="#008100"/>
            <stop offset="1" stop-color="#67B700"/>
        </linearGradient>
        <linearGradient id="paint5_linear" x1="12.7186" y1="5.76432" x2="2.57145" y2="16.8505" gradientUnits="userSpaceOnUse">
            <stop stop-color="#008100"/>
            <stop offset="0.520833" stop-color="#67B700"/>
            <stop offset="0.96875" stop-color="#8AD42A"/>
        </linearGradient>
        <linearGradient id="paint6_linear" x1="-4.7537" y1="13.8354" x2="21.4529" y2="8.24872" gradientUnits="userSpaceOnUse">
            <stop stop-color="#FC1414"/>
            <stop offset="1" stop-color="#4B5CDA"/>
        </linearGradient>
        <linearGradient id="paint7_linear" x1="20.2971" y1="14.0353" x2="7.81558" y2="22.4066" gradientUnits="userSpaceOnUse">
            <stop stop-color="#008100"/>
            <stop offset="0.354167" stop-color="#67B700"/>
            <stop offset="0.96875" stop-color="#8AD52A"/>
        </linearGradient>
        <linearGradient id="paint8_linear" x1="1.41148" y1="17.7444" x2="28.1958" y2="18.5151" gradientUnits="userSpaceOnUse">
            <stop stop-color="#FF5A61"/>
            <stop offset="1" stop-color="#5E98FC"/>
        </linearGradient>
    </defs>
</svg>
