<svg width="23" height="27" viewBox="0 0 23 27" fill="none" xmlns="http://www.w3.org/2000/svg">
    <path fill-rule="evenodd" clip-rule="evenodd" d="M-3.64791e-06 20.8636L-1.60937e-06 9.20454C-7.20541e-07 4.12101 4.12101 7.20541e-07 9.20454 1.60937e-06L13.2955 2.32465e-06C18.379 3.21348e-06 22.5 4.12102 22.5 9.20455L22.5 11.6591C22.5 16.7426 18.379 20.8636 13.2954 20.8636L-3.64791e-06 20.8636ZM6.19774 8.59091C6.48202 7.19044 7.72018 6.13636 9.20454 6.13636L13.2955 6.13636C14.99 6.13637 16.3636 7.51004 16.3636 9.20455L16.3636 11.6591C16.3636 13.3536 14.99 14.7273 13.2954 14.7273L6.13636 14.7273L6.13636 9.20454C6.13636 8.9944 6.15749 8.78918 6.19774 8.59091Z" fill="black"/>
    <path fill-rule="evenodd" clip-rule="evenodd" d="M-3.64791e-06 20.8636L-1.60937e-06 9.20454C-7.20541e-07 4.12101 4.12101 7.20541e-07 9.20454 1.60937e-06L13.2955 2.32465e-06C18.379 3.21348e-06 22.5 4.12102 22.5 9.20455L22.5 11.6591C22.5 16.7426 18.379 20.8636 13.2954 20.8636L-3.64791e-06 20.8636ZM6.19774 8.59091C6.48202 7.19044 7.72018 6.13636 9.20454 6.13636L13.2955 6.13636C14.99 6.13637 16.3636 7.51004 16.3636 9.20455L16.3636 11.6591C16.3636 13.3536 14.99 14.7273 13.2954 14.7273L6.13636 14.7273L6.13636 9.20454C6.13636 8.9944 6.15749 8.78918 6.19774 8.59091Z" fill="url(#paint0_linear)"/>
    <path fill-rule="evenodd" clip-rule="evenodd" d="M-3.64791e-06 20.8636L-1.60937e-06 9.20454C-7.20541e-07 4.12101 4.12101 7.20541e-07 9.20454 1.60937e-06L13.2955 2.32465e-06C18.379 3.21348e-06 22.5 4.12102 22.5 9.20455L22.5 11.6591C22.5 16.7426 18.379 20.8636 13.2954 20.8636L-3.64791e-06 20.8636ZM6.19774 8.59091C6.48202 7.19044 7.72018 6.13636 9.20454 6.13636L13.2955 6.13636C14.99 6.13637 16.3636 7.51004 16.3636 9.20455L16.3636 11.6591C16.3636 13.3536 14.99 14.7273 13.2954 14.7273L6.13636 14.7273L6.13636 9.20454C6.13636 8.9944 6.15749 8.78918 6.19774 8.59091Z" fill="url(#paint1_linear)"/>
    <path d="M4.70165e-07 20.7C2.105e-07 24.1794 2.82061 27 6.3 27L9.75 27C10.827 27 11.7 26.127 11.7 25.05L11.7 20.7L5.85 20.7L4.70165e-07 20.7Z" fill="#C4C4C4"/>
    <path d="M4.70165e-07 20.7C2.105e-07 24.1794 2.82061 27 6.3 27L9.75 27C10.827 27 11.7 26.127 11.7 25.05L11.7 20.7L5.85 20.7L4.70165e-07 20.7Z" fill="url(#paint2_linear)"/>
    <path d="M4.70165e-07 20.7C2.105e-07 24.1794 2.82061 27 6.3 27L9.75 27C10.827 27 11.7 26.127 11.7 25.05L11.7 20.7L5.85 20.7L4.70165e-07 20.7Z" fill="url(#paint3_linear)"/>
    <mask id="mask0" mask-type="alpha" maskUnits="userSpaceOnUse" x="0" y="0" width="23" height="21">
        <path fill-rule="evenodd" clip-rule="evenodd" d="M-3.64791e-06 20.8636L-1.60937e-06 9.20454C-7.20541e-07 4.12101 4.12101 7.20541e-07 9.20454 1.60937e-06L13.2955 2.32465e-06C18.379 3.21348e-06 22.5 4.12102 22.5 9.20455L22.5 11.6591C22.5 16.7426 18.379 20.8636 13.2954 20.8636L-3.64791e-06 20.8636ZM6.19774 8.59091C6.48202 7.19044 7.72018 6.13636 9.20454 6.13636L13.2955 6.13636C14.99 6.13636 16.3636 7.51004 16.3636 9.20455L16.3636 11.6591C16.3636 13.3536 14.99 14.7273 13.2954 14.7273L6.13636 14.7273L6.13636 9.20454C6.13636 8.9944 6.15749 8.78918 6.19774 8.59091Z" fill="black"/>
        <path fill-rule="evenodd" clip-rule="evenodd" d="M-3.64791e-06 20.8636L-1.60937e-06 9.20454C-7.20541e-07 4.12101 4.12101 7.20541e-07 9.20454 1.60937e-06L13.2955 2.32465e-06C18.379 3.21348e-06 22.5 4.12102 22.5 9.20455L22.5 11.6591C22.5 16.7426 18.379 20.8636 13.2954 20.8636L-3.64791e-06 20.8636ZM6.19774 8.59091C6.48202 7.19044 7.72018 6.13636 9.20454 6.13636L13.2955 6.13636C14.99 6.13636 16.3636 7.51004 16.3636 9.20455L16.3636 11.6591C16.3636 13.3536 14.99 14.7273 13.2954 14.7273L6.13636 14.7273L6.13636 9.20454C6.13636 8.9944 6.15749 8.78918 6.19774 8.59091Z" fill="url(#paint4_linear)"/>
    </mask>
    <g mask="url(#mask0)">
        <path d="M18.6382 -6.95457C6.03633 -1.6238 -14.8251 12.0468 2.5445 24.083C1.42576 21.4656 3.07828 11.5938 18.6382 -6.95457Z" fill="url(#paint5_linear)"/>
        <path d="M18.6382 -6.95457C6.03633 -1.6238 -14.8251 12.0468 2.5445 24.083C1.42576 21.4656 3.07828 11.5938 18.6382 -6.95457Z" fill="url(#paint6_linear)"/>
        <path d="M28.5842 3.02076C15.0789 5.21941 -8.42408 13.5675 5.60554 29.3707C5.13766 26.563 9.07836 17.3622 28.5842 3.02076Z" fill="url(#paint7_linear)"/>
        <path d="M28.5842 3.02076C15.0789 5.21941 -8.42408 13.5675 5.60554 29.3707C5.13766 26.563 9.07836 17.3622 28.5842 3.02076Z" fill="url(#paint8_linear)"/>
    </g>
    <defs>
        <linearGradient id="paint0_linear" x1="15.762" y1="7.14706" x2="6.07833" y2="14.6524" gradientUnits="userSpaceOnUse">
            <stop stop-color="#008100"/>
            <stop offset="1" stop-color="#67B700"/>
        </linearGradient>
        <linearGradient id="paint1_linear" x1="-1.82395e-06" y1="10.4318" x2="22.5" y2="10.4318" gradientUnits="userSpaceOnUse">
            <stop stop-color="#FC1414"/>
            <stop offset="1" stop-color="#4B5CDA"/>
        </linearGradient>
        <linearGradient id="paint2_linear" x1="11.0118" y1="26.2588" x2="3.80877" y2="17.5499" gradientUnits="userSpaceOnUse">
            <stop stop-color="#008100"/>
            <stop offset="1" stop-color="#67B700"/>
        </linearGradient>
        <linearGradient id="paint3_linear" x1="2.35082e-07" y1="23.85" x2="11.7" y2="23.85" gradientUnits="userSpaceOnUse">
            <stop stop-color="#FC1414"/>
            <stop offset="1" stop-color="#4B5CDA"/>
        </linearGradient>
        <linearGradient id="paint4_linear" x1="15.762" y1="7.14706" x2="6.07833" y2="14.6524" gradientUnits="userSpaceOnUse">
            <stop stop-color="#008100"/>
            <stop offset="1" stop-color="#67B700"/>
        </linearGradient>
        <linearGradient id="paint5_linear" x1="12.7186" y1="3.76432" x2="2.57145" y2="14.8505" gradientUnits="userSpaceOnUse">
            <stop stop-color="#008100"/>
            <stop offset="0.520833" stop-color="#67B700"/>
            <stop offset="0.96875" stop-color="#8AD42A"/>
        </linearGradient>
        <linearGradient id="paint6_linear" x1="-4.7537" y1="11.8354" x2="21.4529" y2="6.24872" gradientUnits="userSpaceOnUse">
            <stop stop-color="#FC1414"/>
            <stop offset="1" stop-color="#4B5CDA"/>
        </linearGradient>
        <linearGradient id="paint7_linear" x1="20.2971" y1="12.0353" x2="7.81558" y2="20.4066" gradientUnits="userSpaceOnUse">
            <stop stop-color="#008100"/>
            <stop offset="0.354167" stop-color="#67B700"/>
            <stop offset="0.96875" stop-color="#8AD52A"/>
        </linearGradient>
        <linearGradient id="paint8_linear" x1="1.41148" y1="15.7444" x2="28.1958" y2="16.5151" gradientUnits="userSpaceOnUse">
            <stop stop-color="#FF5A61"/>
            <stop offset="1" stop-color="#5E98FC"/>
        </linearGradient>
    </defs>
</svg>
