<svg width="22" height="18" viewBox="0 0 22 18" fill="none" xmlns="http://www.w3.org/2000/svg">
    <path d="M21.423 0.934092C21.0384 0.54937 20.5758 0.357117 20.0358 0.357117H1.96433C1.42416 0.357117 0.961654 0.54937 0.576975 0.934092C0.192253 1.31873 0 1.78119 0 2.32145V15.6787C0 16.219 0.192253 16.6811 0.576975 17.0657C0.961611 17.4507 1.42412 17.6429 1.96433 17.6429H20.0358C20.5759 17.6429 21.0384 17.4507 21.423 17.0657C21.8078 16.6811 22 16.2188 22 15.6787V2.32145C22 1.78119 21.8078 1.31873 21.423 0.934092ZM20.4284 15.6784C20.4284 15.7848 20.3896 15.8769 20.3117 15.9546C20.2339 16.0325 20.1419 16.071 20.0356 16.071H1.9642C1.85782 16.071 1.76571 16.0325 1.68801 15.9546C1.61022 15.8769 1.5714 15.7848 1.5714 15.6784V6.24989C1.83327 6.54453 2.11565 6.81465 2.4185 7.06014C4.61202 8.74613 6.35529 10.1292 7.64847 11.2096C8.06587 11.5616 8.40557 11.8358 8.66744 12.0322C8.92931 12.2288 9.28329 12.4272 9.72929 12.6276C10.1753 12.8283 10.5948 12.9282 10.9877 12.9282H11H11.0122C11.405 12.9282 11.8247 12.8283 12.2706 12.6276C12.7167 12.4272 13.0709 12.2288 13.3327 12.0322C13.5945 11.8358 13.9343 11.5616 14.3517 11.2096C15.6449 10.1292 17.388 8.74613 19.5816 7.06014C19.8844 6.8147 20.1669 6.54453 20.4284 6.24989V15.6784ZM20.4284 2.64055V2.77557C20.4284 3.25842 20.2383 3.79661 19.8577 4.38992C19.4772 4.98324 19.0657 5.45598 18.624 5.80781C17.0442 7.05206 15.4035 8.34915 13.7007 9.69957C13.6517 9.74047 13.5084 9.86112 13.2709 10.0615C13.0338 10.2623 12.8455 10.4159 12.7063 10.5222C12.5669 10.6287 12.385 10.7576 12.16 10.9089C11.9349 11.0601 11.7283 11.1729 11.5401 11.2465C11.3519 11.3199 11.1759 11.3566 11.0122 11.3566H11H10.9877C10.824 11.3566 10.6482 11.3199 10.4599 11.2465C10.2716 11.1729 10.0649 11.0601 9.83993 10.9089C9.615 10.7575 9.43285 10.6287 9.2937 10.5222C9.15464 10.4159 8.9663 10.2623 8.72902 10.0615C8.49166 9.86112 8.3483 9.74047 8.29924 9.69957C6.5969 8.34911 4.95598 7.05206 3.37628 5.80781C2.1731 4.85854 1.57161 3.69624 1.57161 2.32123C1.57161 2.21494 1.61044 2.12279 1.68823 2.04513C1.76601 1.96734 1.85803 1.92843 1.96442 1.92843H20.0359C20.1013 1.96519 20.1586 1.97542 20.2078 1.95917C20.2569 1.94262 20.2937 1.9734 20.3181 2.0511C20.3427 2.12889 20.3652 2.16566 20.3856 2.16161C20.4061 2.15749 20.4185 2.20861 20.4226 2.31517C20.4264 2.42151 20.4284 2.47504 20.4284 2.47504V2.64055H20.4284Z" fill="#FC1414"/>
</svg>
