<svg width="22" height="22" viewBox="0 0 22 22" fill="none" xmlns="http://www.w3.org/2000/svg">
    <g clip-path="url(#clip0)">
        <path d="M21.435 16.2264L18.7001 13.4915C17.9461 12.7376 16.7192 12.7376 15.9652 13.4915L14.722 14.7347C14.1508 15.3059 13.2213 15.3057 12.6503 14.7349L7.26201 9.34198C6.68945 8.76942 6.68937 7.84271 7.26201 7.27007C7.46225 7.06983 8.03721 6.49487 8.50514 6.02694C9.25585 5.27627 9.26634 4.05316 8.50441 3.29133L5.77022 0.565728C5.0162 -0.188246 3.78931 -0.188246 3.03732 0.563751C2.4746 1.12157 2.29309 1.30153 2.04078 1.55165C-0.678286 4.27067 -0.678286 8.69487 2.04065 11.4138L10.5782 19.9558C13.3036 22.6813 17.7148 22.6815 20.4405 19.9558L21.435 18.9613C22.189 18.2073 22.189 16.9805 21.435 16.2264ZM3.94697 1.47735C4.19829 1.22603 4.60718 1.22599 4.85932 1.47804L7.59352 4.20364C7.84544 4.45557 7.84544 4.8633 7.59352 5.11527L7.13766 5.57108L3.49347 1.92689L3.94697 1.47735ZM11.49 19.0443L2.95241 10.5022C0.84874 8.39856 0.733111 5.09533 2.5968 2.85352L6.23042 6.48713C5.27565 7.56948 5.31544 9.21875 6.35017 10.2535L11.7383 15.6461C11.7383 15.6462 11.7384 15.6462 11.7385 15.6463C12.7721 16.6799 14.4213 16.7223 15.5049 15.7663L19.1386 19.4C16.904 21.2604 13.6082 21.1625 11.49 19.0443ZM20.5234 18.0497L20.0676 18.5056L16.421 14.859L16.8768 14.4032C17.1282 14.1518 17.5371 14.1518 17.7885 14.4032L20.5234 17.1381C20.7748 17.3894 20.7748 17.7984 20.5234 18.0497Z" fill="#4B5CDA"/>
    </g>
    <defs>
        <clipPath id="clip0">
            <rect width="22" height="22" fill="white"/>
        </clipPath>
    </defs>
</svg>
