<svg width="121" height="110" viewBox="0 0 121 110" fill="none" xmlns="http://www.w3.org/2000/svg">
    <path d="M119.89 60.4782C120.893 59.958 121.291 58.7397 120.755 57.7404C120.234 56.7547 119.011 56.3578 118.009 56.8779L95.7748 68.4315V64.448L119.89 51.9225C120.893 51.4023 121.291 50.184 120.755 49.1847C120.247 48.1991 119.025 47.8158 118.009 48.336L95.7748 59.8759V56.1114L119.89 43.5859C120.591 43.2437 121.003 42.5318 120.989 41.7652C120.975 40.9987 120.536 40.3005 119.835 39.9583L82.4812 21.9846C81.9319 21.7108 81.2727 21.7245 80.7096 21.9846L1.13999 60.7519C0.439597 61.0805 0.000138542 61.7923 0.000138542 62.5726C0.000138542 63.3529 0.45333 64.0373 1.13999 64.3932L40.9111 83.64C41.1995 83.7769 41.5016 83.8591 41.8037 83.8591C42.1196 83.8591 42.4492 83.7769 42.7376 83.6127L68.4048 70.2932V74.0714L41.7763 87.8973L2.91156 69.0749C1.92277 68.5821 0.700527 69.0201 0.206135 70.0057C-0.274524 71.0187 0.13747 72.2234 1.15372 72.7025L40.9248 91.9767C41.2132 92.1136 41.5153 92.1683 41.8175 92.1683C42.1333 92.1683 42.4629 92.0862 42.7513 91.9493L68.4185 78.6025V82.586L41.79 96.4119L2.92529 77.6169C1.92277 77.1104 0.700527 77.5484 0.206135 78.5614C-0.274524 79.547 0.13747 80.779 1.15372 81.2581L40.9248 100.505C41.2132 100.642 41.5153 100.724 41.8175 100.724C42.1333 100.724 42.4629 100.642 42.7513 100.478L68.4185 87.1581V90.8679L41.79 104.694L2.92529 85.8987C1.92277 85.4333 0.700527 85.8303 0.206135 86.8433C-0.288257 87.8563 0.13747 89.0609 1.15372 89.5537L40.9248 108.801C41.2132 108.965 41.5153 109.006 41.8175 109.006C42.1333 109.006 42.4629 108.924 42.7513 108.759L94.6762 81.8331L119.89 68.7327C120.893 68.2262 121.291 66.9942 120.755 66.0085C120.22 65.0229 119.011 64.6123 118.009 65.1461L95.7748 76.7134V72.9763L119.89 60.4782ZM81.6023 26.0502L114.424 41.8611L93.5775 52.6754L60.3709 36.3991L81.6023 26.0502ZM41.79 79.547L6.68816 62.5452L31.861 50.2935L65.9465 67.0078L41.79 79.547ZM72.4972 68.1851L85.5299 61.4227C86.5187 60.9162 86.9033 59.6979 86.3951 58.6986C85.8733 57.6993 84.651 57.316 83.6622 57.8362L70.4373 64.6807L36.489 48.0348L55.7566 38.6441L91.6961 56.2756V78.7941L72.4972 88.7734V68.1851Z" fill="#E3E3FF"/>
    <path d="M36.3491 27.1043C52.7601 27.1043 65.1474 21.2728 65.1474 13.5522C65.1474 5.83153 52.7739 0 36.3491 0C19.938 0 7.56445 5.83153 7.56445 13.5522C7.56445 21.2728 19.938 27.1043 36.3491 27.1043ZM36.3491 4.03827C50.9199 4.03827 61.0687 9.04846 61.0687 13.5385C61.0687 18.0285 50.9199 23.0387 36.3491 23.0387C21.7782 23.0387 11.6295 18.0285 11.6295 13.5385C11.6295 9.04846 21.792 4.03827 36.3491 4.03827Z" fill="#E3E3FF"/>
    <path d="M64.65 25.3384C65.1169 24.3117 64.65 23.1071 63.6337 22.6553C62.6037 22.2036 61.409 22.6553 60.942 23.682C59.5413 26.7894 49.7496 30.1433 36.3598 30.1433C22.9837 30.1433 13.1783 26.7894 11.7638 23.682C11.2968 22.6553 10.0883 22.2036 9.07208 22.669C8.0421 23.1208 7.5889 24.3254 8.05583 25.3384C10.8162 31.4163 24.6592 34.1952 36.3598 34.1952C48.0604 34.1952 61.9171 31.4163 64.65 25.3384Z" fill="#E3E3FF"/>
    <path d="M38.3923 39.8351C38.3923 38.7126 37.4859 37.8091 36.3598 37.8091C22.9837 37.8091 13.1783 34.4553 11.7638 31.3342C11.2968 30.3212 10.0883 29.8558 9.07208 30.3212C8.0421 30.7867 7.5889 31.9776 8.05583 33.0043C10.8162 39.0822 24.6592 41.8611 36.3598 41.8611C37.4722 41.8611 38.3923 40.9576 38.3923 39.8351Z" fill="#E3E3FF"/>
    <path d="M23.7138 47.5968C24.7026 47.5968 25.5678 46.8849 25.7188 45.872C25.8836 44.7631 25.1283 43.7228 24.0159 43.5585C15.4739 42.2854 12.2192 40.1362 11.6973 39.178C11.148 38.1924 9.92577 37.8365 8.93698 38.3704C7.9482 38.9042 7.5774 40.1499 8.12673 41.1219C10.1867 44.8727 17.5751 46.6933 23.4117 47.5694C23.5078 47.5831 23.6039 47.5968 23.7138 47.5968Z" fill="#E3E3FF"/>
    <path d="M11.5749 46.5017C10.9431 45.5709 9.67969 45.3518 8.74584 45.9815C7.82572 46.6112 7.59226 47.8843 8.23772 48.8015C9.3501 50.4168 11.9457 51.7036 16.1617 52.7165C16.3265 52.7576 16.4776 52.7713 16.6424 52.7713C17.5488 52.7713 18.3865 52.1553 18.6199 51.2244C18.8946 50.143 18.2217 49.0479 17.123 48.7741C12.4263 47.6379 11.6161 46.5428 11.5749 46.5017Z" fill="#E3E3FF"/>
    <path d="M72.151 48.4004C71.4056 46.6132 67.0201 46.7314 62.3557 48.6644C57.6913 50.5974 54.5143 53.6132 55.2597 55.4004C56.0051 57.1875 60.3906 57.0693 65.055 55.1363C69.7194 53.2034 72.8964 50.1876 72.151 48.4004Z" fill="#E3E3FF"/>
</svg>
