<svg width="14" height="19" viewBox="0 0 14 19" fill="none" xmlns="http://www.w3.org/2000/svg">
    <path d="M11.8125 0H2.1875C1.05017 0 0.125 0.799008 0.125 1.78125V17.2188C0.125 18.201 1.05017 19 2.1875 19H11.8125C12.9498 19 13.875 18.201 13.875 17.2188V1.78125C13.875 0.799008 12.9498 0 11.8125 0ZM2.1875 1.1875H11.8125C12.1918 1.1875 12.5 1.45364 12.5 1.78125V14.25H1.5V1.78125C1.5 1.45364 1.80817 1.1875 2.1875 1.1875ZM11.8125 17.8125H2.1875C1.80817 17.8125 1.5 17.5464 1.5 17.2188V15.4375H12.5V17.2188C12.5 17.5464 12.1918 17.8125 11.8125 17.8125Z" fill="#6F6F6F"/>
    <path d="M7.48616 16.2052C7.75466 16.4371 7.75466 16.813 7.48616 17.0449C7.21766 17.2768 6.78237 17.2768 6.51387 17.0449C6.24538 16.813 6.24538 16.4371 6.51387 16.2052C6.78237 15.9733 7.21766 15.9733 7.48616 16.2052Z" fill="#6F6F6F"/>
</svg>
