<svg width="232" height="113" viewBox="0 0 232 113" fill="none" xmlns="http://www.w3.org/2000/svg">
    <path d="M186.561 110.017C185.013 104.531 177.881 105.064 177.881 105.064L178.076 108.88C182.198 108.17 184.76 113 184.76 113L186.561 110.017Z" fill="#4B5CDA"/>
    <path d="M118.603 45.6272C126.874 48.1329 132.021 38.5929 132.021 38.5929L126.99 35.7261C124.53 41.5694 116.269 40.8931 116.269 40.8931L118.603 45.6272Z" fill="#E0E0E0"/>
    <path d="M72.6998 55.8954C68.8494 56.3043 68.3906 61.1362 68.3906 61.1362L70.9662 61.4414C70.9622 58.6006 74.4893 57.4395 74.4893 57.4395L72.6998 55.8954Z" fill="#4B5CDA"/>
    <path d="M231.374 91.2347C231.933 87.4043 227.366 85.7605 227.366 85.7605L226.431 88.1804C229.184 88.8806 229.433 92.5853 229.433 92.5853L231.374 91.2347Z" fill="#E0E0E0"/>
    <path d="M95.1604 5.47421C95.719 1.64384 91.1525 0 91.1525 0L90.2168 2.41991C92.9699 3.12015 93.2193 6.82482 93.2193 6.82482L95.1604 5.47421Z" fill="#4B5CDA"/>
    <path d="M0.0426905 67.2609C-0.649569 73.2658 7.30644 74.7201 7.30644 74.7201L8.74283 70.79C3.96884 70.3591 3.28055 64.7352 3.28055 64.7352L0.0426905 67.2609Z" fill="#4B5CDA"/>
    <path d="M177.118 45.4977C180.982 45.7191 182.219 41.0229 182.219 41.0229L179.727 40.3027C179.27 43.1057 175.604 43.6802 175.604 43.6802L177.118 45.4977Z" fill="#4B5CDA"/>
    <path d="M21.2486 43.7838C23.0103 43.7838 24.4385 43.6445 24.4385 43.4726C24.4385 43.3007 23.0103 43.1614 21.2486 43.1614C19.4868 43.1614 18.0586 43.3007 18.0586 43.4726C18.0586 43.6445 19.4868 43.7838 21.2486 43.7838Z" fill="#4B5CDA"/>
    <path d="M27.8288 41.2681C28.0007 41.2681 28.14 39.8185 28.14 38.0303C28.14 36.2421 28.0007 34.7924 27.8288 34.7924C27.6569 34.7924 27.5176 36.2421 27.5176 38.0303C27.5176 39.8185 27.6569 41.2681 27.8288 41.2681Z" fill="#4B5CDA"/>
    <path d="M34.6285 43.5763C36.3902 43.5763 37.8184 43.437 37.8184 43.2651C37.8184 43.0933 36.3902 42.9539 34.6285 42.9539C32.8667 42.9539 31.4385 43.0933 31.4385 43.2651C31.4385 43.437 32.8667 43.5763 34.6285 43.5763Z" fill="#4B5CDA"/>
    <path d="M28.0485 51.9453C28.2204 51.9453 28.3597 50.4957 28.3597 48.7074C28.3597 46.9192 28.2204 45.4696 28.0485 45.4696C27.8767 45.4696 27.7373 46.9192 27.7373 48.7074C27.7373 50.4957 27.8767 51.9453 28.0485 51.9453Z" fill="#4B5CDA"/>
    <path d="M31.8116 47.0542C32.438 47.8043 33.0527 48.3232 33.1846 48.213C33.3165 48.1028 32.9157 47.4054 32.2894 46.6552C31.663 45.9051 31.0483 45.3862 30.9164 45.4964C30.7844 45.6065 31.1853 46.304 31.8116 47.0542Z" fill="#4B5CDA"/>
    <path d="M31.9485 39.763C32.5993 39.1065 33.0279 38.4762 32.9058 38.3552C32.7838 38.2342 32.1572 38.6683 31.5065 39.3248C30.8557 39.9813 30.4271 40.6116 30.5492 40.7326C30.6712 40.8536 31.2977 40.4195 31.9485 39.763Z" fill="#4B5CDA"/>
    <path d="M24.2805 40.1877C24.8996 40.7028 25.4906 41.0133 25.6006 40.8812C25.7105 40.7491 25.2977 40.2243 24.6786 39.7092C24.0595 39.194 23.4685 38.8836 23.3586 39.0157C23.2486 39.1478 23.6614 39.6725 24.2805 40.1877Z" fill="#4B5CDA"/>
    <path d="M24.4338 46.6135C25.0245 45.9653 25.4004 45.346 25.2734 45.2302C25.1463 45.1145 24.5645 45.5461 23.9738 46.1943C23.3831 46.8425 23.0073 47.4619 23.1343 47.5776C23.2614 47.6934 23.8432 47.2617 24.4338 46.6135Z" fill="#4B5CDA"/>
    <path fill-rule="evenodd" clip-rule="evenodd" d="M104 109C120.016 109 133 96.0163 133 80C133 63.9837 120.016 51 104 51C87.9838 51 75 63.9837 75 80C75 96.0163 87.9838 109 104 109ZM103.205 84.6833L110.59 77.2982C111.137 76.7508 111.137 75.8638 110.59 75.3167C110.043 74.7699 109.156 74.7695 108.609 75.3167L102.214 81.7112L99.3921 78.8889C98.8451 78.3419 97.958 78.3419 97.4108 78.8891C96.8636 79.4362 96.8636 80.3235 97.4108 80.8705L101.223 84.6833C101.771 85.2303 102.658 85.2303 103.205 84.6833Z" fill="#4B5CDA"/>
</svg>
