<svg width="144" height="144" viewBox="0 0 144 144" fill="none" xmlns="http://www.w3.org/2000/svg">
    <path fill-rule="evenodd" clip-rule="evenodd" d="M150.024 56.5098L141.565 54.5162C141.565 53.7082 141.619 53.2635 141.664 52.8972C141.677 52.7928 141.689 52.6948 141.699 52.5965C141.848 51.0855 141.462 49.5215 135.143 23.9087C133.216 16.0965 130.736 6.04684 127.551 -6.92104C125.843 -13.8882 119.641 -18.7566 112.475 -18.7566C112.339 -18.7566 112.223 -18.7597 112.116 -18.7625C112.056 -18.7641 111.999 -18.7656 111.942 -18.7665C110.544 -18.7885 109.14 -18.4428 73.4717 -9.66C61.2166 -6.64234 44.9164 -2.62866 23.1817 2.70835C21.8901 3.02475 21.1016 4.32622 21.4192 5.6178C21.7369 6.90691 23.0408 7.69546 24.3262 7.37781C46.6446 1.89773 63.2158 -2.17955 75.5403 -5.21193C110.415 -13.7926 111.284 -14.0066 112.141 -13.9629C112.163 -13.9618 112.185 -13.9605 112.207 -13.9592C112.283 -13.9548 112.365 -13.95 112.475 -13.95C117.42 -13.95 121.703 -10.5869 122.886 -5.77654L136.568 49.958C137.974 55.6483 134.549 61.5006 128.708 62.9368C119.906 65.0973 40.6496 84.5587 31.7914 86.734C26.0949 88.1418 20.2463 84.7095 18.8101 78.8758C15.3535 64.7974 12.7477 54.2141 10.7839 46.2383C5.01599 22.8127 4.78644 21.8804 4.80471 20.953C4.80546 20.9145 4.80665 20.8761 4.80788 20.8361C4.81027 20.7583 4.81285 20.6745 4.81285 20.573C4.81285 15.6242 8.17467 11.3453 12.9863 10.1637L14.9898 9.67299C16.2776 9.35535 17.0662 8.05388 16.7485 6.7623C16.4346 5.47443 15.1331 4.68588 13.8416 5.00229L11.8418 5.49297C3.4434 7.55455 -1.59438 15.9962 0.457318 24.2883L14.1431 80.0203C15.368 85.0197 18.9028 88.9328 23.4475 90.7509L22.5403 94.5997L22.5427 94.6009L21.0312 101.013C19.0586 109.361 24.2212 117.731 32.5862 119.703L129.718 142.611C138.062 144.583 146.436 139.419 148.408 131.056L149.92 124.642H149.921L154.997 103.117L161.581 75.1988C163.551 66.8424 158.387 58.4799 150.024 56.5098ZM156.902 74.0963L150.318 102.013L108.786 92.2192C107.494 91.9139 106.199 92.7149 105.891 94.0077C105.587 95.2992 106.388 96.5933 107.68 96.8986L149.213 106.694L146.344 118.86L48.8589 95.869C47.5636 95.5613 46.272 96.3634 45.9679 97.6575C45.6627 98.9491 46.4611 100.244 47.7527 100.548L145.24 123.539L143.728 129.949C142.382 135.672 136.639 139.307 130.82 137.931L33.6911 115.024C27.9216 113.666 24.3435 107.895 25.7105 102.119L27.2233 95.7046C29.9906 96.3576 32.0856 96.8533 33.6755 97.2295C38.4808 98.3664 38.6714 98.4115 38.8606 98.4063C38.8684 98.4061 38.8762 98.4058 38.8843 98.4055C38.9025 98.4048 38.9225 98.404 38.9477 98.404C41.7805 98.404 42.2638 94.313 39.4989 93.6604L31.2649 91.7187C31.3289 91.7103 31.3839 91.7036 31.4352 91.6973C31.4732 91.6927 31.5092 91.6883 31.5451 91.6837C32.1547 91.6053 32.7555 91.4575 43.5489 88.8025C47.1516 87.9162 51.89 86.7506 58.1434 85.215L98.3208 94.6899C99.6149 94.9977 100.91 94.1968 101.214 92.904C101.52 91.6099 100.719 90.3146 99.4258 90.0106L68.4068 82.6961L91.6639 76.9848C104.702 80.0592 114.235 82.3088 121.207 83.9543C140.055 88.4025 140.197 88.436 140.328 88.4122L140.331 88.4116C140.342 88.4097 140.353 88.4075 140.376 88.4075C143.206 88.4075 143.687 84.319 140.923 83.6614L101.926 74.4646L118.343 70.4329C121.708 71.2264 124.238 71.8246 126.145 72.2755C131.773 73.6064 131.975 73.654 132.175 73.6494C132.183 73.6493 132.19 73.649 132.198 73.6488C132.215 73.6482 132.232 73.6477 132.254 73.6477C135.086 73.6477 135.569 69.5554 132.805 68.904L128.603 67.914L129.853 67.6063C134.539 66.4556 138.273 63.2755 140.219 59.1387L148.921 61.1892C154.708 62.5537 158.259 68.338 156.902 74.0963ZM111.61 6.26422L118.536 13.486C119.841 14.848 120.324 16.8169 119.798 18.6276L117.006 28.2372C116.479 30.0479 115.016 31.4507 113.185 31.9006L103.467 34.2872C101.643 34.7371 99.6924 34.176 98.3836 32.8102C96.7667 31.1239 95.5108 29.8174 94.5311 28.7983C91.4312 25.5738 91.0974 25.2265 90.8498 24.8258C90.82 24.7777 90.7915 24.7287 90.7596 24.674L90.7592 24.6732L90.7206 24.6071L81.5559 26.8566C79.7317 27.3053 77.7825 26.7454 76.4737 25.3809L69.5473 18.1567C68.2421 16.7959 67.7589 14.8257 68.2842 13.0163L71.0774 3.40667C71.6027 1.59598 73.0673 0.191929 74.8978 -0.256725L84.6162 -2.64337C86.4479 -3.09326 88.3945 -2.52719 89.6997 -1.16639C91.2287 0.428276 92.4355 1.68413 93.3913 2.67876L93.3949 2.68253C96.6646 6.08502 96.994 6.4278 97.2371 6.82355C97.2643 6.8677 97.2903 6.91251 97.3193 6.9623L97.3197 6.96305L97.3627 7.03669L106.527 4.78601C108.36 4.33611 110.307 4.90342 111.61 6.26422ZM90.237 19.7789C90.4263 19.7189 90.5254 19.3746 91.6964 15.3063L91.6967 15.3052C92.0878 13.9466 92.5983 12.1729 93.2716 9.85592C93.2772 9.83661 93.2835 9.81967 93.2894 9.80385C93.2964 9.78496 93.3028 9.76767 93.3067 9.74982C93.3492 9.55706 93.1018 9.30034 90.1802 6.26914C89.1966 5.24864 87.9099 3.91368 86.2291 2.16082L86.211 2.14171C86.1889 2.11817 86.1691 2.09719 86.1467 2.07972C85.963 1.93695 85.597 2.02883 82.2378 2.87197L82.2377 2.87198L82.2374 2.87208C80.7971 3.23357 78.8067 3.73315 76.0448 4.41151C76.0253 4.41626 76.0075 4.41924 75.9909 4.42202C75.9709 4.42537 75.9525 4.42844 75.935 4.43398C75.7465 4.49339 75.6476 4.83691 74.4864 8.87107L74.4857 8.87342C74.0933 10.2365 73.5797 12.0207 72.9005 14.3573C72.895 14.3766 72.8887 14.3935 72.8829 14.4093C72.876 14.428 72.8696 14.4451 72.8658 14.4628C72.8234 14.6552 73.0701 14.9112 76.0029 17.9547L76.0045 17.9564C76.9865 18.9754 78.2693 20.3067 79.943 22.0524L79.9614 22.0718C79.9834 22.0951 80.003 22.1159 80.0254 22.1332C80.2086 22.2754 80.5732 22.184 83.9299 21.3418C85.3705 20.9803 87.3623 20.4806 90.1273 19.8017C90.1468 19.7969 90.1646 19.7939 90.1811 19.791L90.1812 19.791C90.2012 19.7876 90.2195 19.7845 90.237 19.7789ZM112.36 27.0022C112.368 26.9833 112.372 26.9633 112.378 26.9414C112.381 26.9269 112.385 26.9115 112.389 26.8949C113.184 24.1606 113.767 22.1915 114.189 20.7672L114.189 20.767C115.172 17.4482 115.278 17.0883 115.144 16.8999C115.128 16.877 115.108 16.8566 115.085 16.8338L115.067 16.8144C113.133 14.7977 111.735 13.3315 110.719 12.2659L110.717 12.2646L110.717 12.2645C108.188 9.61243 108.026 9.44273 107.862 9.43969C107.85 9.43948 107.839 9.44006 107.827 9.44067C107.815 9.44125 107.803 9.44188 107.789 9.44188C107.699 9.44188 98.0424 11.8199 97.9559 11.8421C97.9391 11.8462 97.9234 11.8493 97.9087 11.8521C97.8942 11.8549 97.8806 11.8575 97.8676 11.8609C97.8608 11.8626 97.8541 11.8645 97.8476 11.8668C97.6514 11.9339 97.5513 12.2821 96.4232 16.2072L96.423 16.2076C96.028 17.582 95.507 19.395 94.8116 21.7879C94.8061 21.8071 94.7998 21.824 94.794 21.8398C94.787 21.8587 94.7806 21.876 94.7766 21.8939C94.7342 22.0869 94.9817 22.3437 97.9025 25.3741C98.8861 26.3946 100.173 27.7298 101.854 29.483C101.974 29.6079 102.154 29.6598 102.32 29.6177C104.749 29.0216 106.587 28.5762 107.979 28.239L107.979 28.239C111.933 27.281 112.285 27.1956 112.36 27.0022ZM49.547 12.7629C47.5015 11.5245 45.0976 11.1562 42.7764 11.7272L20.0248 17.3137C15.2219 18.4928 12.2877 23.3366 13.468 28.1395L16.2774 39.5833C17.454 44.3751 22.2891 47.3229 27.1032 46.1401L49.8548 40.5535C54.6577 39.3732 57.5919 34.5319 56.4116 29.7277C55.9245 27.744 55.5212 26.0166 55.168 24.5038L55.1679 24.5035L55.1679 24.5032C53.4229 17.0294 52.901 14.794 49.547 12.7629ZM25.9574 41.4706C23.7352 42.0169 21.4931 40.6611 20.9469 38.4363L18.1363 26.9925C17.59 24.7703 18.9471 22.5282 21.1706 21.9819L27.2008 20.5013C28.535 25.9348 29.4917 29.8356 30.1794 32.64L30.182 32.6505L30.1822 32.6513C31.9048 39.6753 31.938 39.8108 31.9952 39.9354L31.9986 39.9428L31.9987 39.9429L32.0023 39.9508L32.0083 39.9639L32.0161 39.9825L25.9574 41.4706ZM38.7323 17.6665L38.7324 17.6665L38.7324 17.6665L38.7325 17.6665C43.9889 16.3703 44.3674 16.2769 44.7467 16.2735C44.7761 16.2732 44.8056 16.2735 44.8373 16.2738C44.8625 16.274 44.8891 16.2743 44.9184 16.2743C46.7476 16.2743 48.4619 17.5127 48.9328 19.4309L49.6632 22.4046L33.5883 26.3523L31.8703 19.3555C34.7632 18.6452 36.981 18.0984 38.6882 17.6774L38.6948 17.6758L38.696 17.6755L38.7045 17.6734L38.7223 17.669L38.729 17.6673L38.7323 17.6665ZM51.2638 34.0079C50.6903 34.9534 49.7831 35.6196 48.7078 35.8841L36.6275 38.8504L36.6241 38.8134L36.6211 38.7803C36.6053 38.6208 36.5665 38.4636 35.9562 35.9877L35.9551 35.983L35.9514 35.9682C35.6769 34.8543 35.2875 33.2745 34.734 31.0205L50.8102 27.0729C50.9524 27.6522 51.091 28.178 51.2182 28.6606C51.8619 31.1024 52.2142 32.4392 51.2638 34.0079ZM32.4911 80.8954C32.4961 80.8967 32.4994 80.8983 32.5028 80.8998C32.5953 80.9415 32.7204 80.9108 69.0364 71.9884L69.0528 71.9844L69.0628 71.982L69.0696 71.9803L69.0885 71.9757L69.2852 71.9273L69.296 71.9247L69.5542 71.8612L69.5936 71.8515L69.5937 71.8515C82.7676 68.6149 100.632 64.2259 124.862 58.276C126.151 57.9596 126.94 56.6581 126.622 55.369C126.307 54.0799 125.003 53.2901 123.715 53.6078L31.8941 76.1542C29.1503 76.8278 29.6471 80.8929 32.4651 80.8929C32.4722 80.8929 32.4778 80.8932 32.4824 80.8938L32.4868 80.8945L32.4911 80.8954ZM23.0121 63.2198C22.6944 61.9307 23.483 60.628 24.7721 60.3116C26.0612 59.994 27.3639 60.7838 27.6803 62.0729L28.8458 66.8177C29.2166 68.3293 28.0721 69.7952 26.5098 69.7952C25.4284 69.7952 24.4458 69.061 24.1776 67.9647L23.0121 63.2198ZM34.6298 67.8732C35.9189 67.5568 36.7075 66.2541 36.3898 64.965L35.2243 60.2202C34.9091 58.9311 33.6064 58.1425 32.3173 58.4602C31.0282 58.7753 30.2397 60.078 30.5561 61.3671L31.7216 66.112C32.0368 67.3949 33.3333 68.1909 34.6298 67.8732ZM43.9333 63.1123C44.251 64.4014 43.4624 65.7041 42.1733 66.0205C40.8768 66.3394 39.5803 65.5422 39.2651 64.2593L38.0996 59.5144C37.7832 58.2253 38.5717 56.9239 39.8608 56.6074C41.15 56.2898 42.4527 57.0783 42.7678 58.3674L43.9333 63.1123ZM49.142 64.2383C50.7055 64.2383 51.85 62.7724 51.478 61.2609L50.3125 56.5147C49.9961 55.2256 48.6934 54.4371 47.4055 54.7547C46.1164 55.0711 45.3278 56.3726 45.6442 57.6617L46.8097 62.4066C47.0779 63.5041 48.0605 64.2383 49.142 64.2383ZM66.5661 57.5554C66.9369 59.067 65.7924 60.5329 64.2289 60.5329C63.1487 60.5329 62.1661 59.7987 61.8966 58.7024L60.7311 53.9575C60.4147 52.6684 61.2033 51.3657 62.4924 51.0493C63.7815 50.7317 65.0842 51.5215 65.4006 52.8106L66.5661 57.5554ZM70.037 49.1966C68.7479 49.513 67.9594 50.8157 68.2758 52.1048L69.4413 56.8497C69.7107 57.946 70.6921 58.6801 71.7735 58.6801C73.337 58.6801 74.4815 57.2143 74.1095 55.7027L72.944 50.9578C72.6276 49.6687 71.3261 48.879 70.037 49.1966ZM75.8208 50.2521C75.5044 48.963 76.2929 47.6603 77.582 47.3439C78.8711 47.0275 80.1726 47.816 80.489 49.1051L81.6545 53.85C81.9709 55.1391 81.1824 56.4418 79.8933 56.7582C78.598 57.0759 77.3002 56.2799 76.9863 54.997L75.8208 50.2521ZM85.1248 45.4912C83.8357 45.8076 83.0471 47.1103 83.3648 48.3994L84.5303 53.1443C84.7985 54.2418 85.7811 54.976 86.8626 54.976C88.4248 54.976 89.5693 53.5089 89.1985 51.9973L88.033 47.2524C87.7166 45.9633 86.4139 45.1748 85.1248 45.4912ZM98.6449 44.647C98.3285 43.3579 99.1171 42.0552 100.406 41.7401C101.697 41.4224 102.998 42.211 103.314 43.5013L104.479 48.2461C104.851 49.7577 103.705 51.2236 102.143 51.2236C101.062 51.2236 100.08 50.4894 99.8104 49.3919L98.6449 44.647ZM107.95 39.8873C106.661 40.2037 105.872 41.5052 106.188 42.7943L107.354 47.5392C107.669 48.8258 108.969 49.6181 110.261 49.3004C111.55 48.984 112.339 47.6826 112.022 46.3934L110.858 41.6486C110.542 40.3582 109.24 39.5697 107.95 39.8873ZM113.733 40.9416C113.417 39.6525 114.205 38.351 115.494 38.0346C116.783 37.717 118.085 38.5055 118.401 39.7959L119.567 44.5407C119.883 45.8298 119.095 47.1313 117.806 47.4477C116.514 47.7654 115.214 46.9743 114.899 45.6865L113.733 40.9416ZM125.35 45.595C126.639 45.2786 127.428 43.9771 127.111 42.688L125.946 37.9432C125.63 36.6541 124.327 35.8643 123.039 36.1819C121.75 36.4983 120.961 37.7998 121.278 39.0889L122.442 43.8338C122.758 45.1217 124.057 45.9127 125.35 45.595ZM37.4928 110.329C36.2012 110.023 35.4003 108.729 35.7056 107.438C36.0109 106.145 37.3049 105.344 38.5978 105.649L130.621 127.352C131.913 127.657 132.714 128.952 132.409 130.244C132.148 131.35 131.16 132.096 130.071 132.096C130.049 132.096 130.041 132.1 130.034 132.103C129.899 132.155 129.714 132.078 37.4928 110.329Z" fill="#DADAFF"/>
</svg>
