<svg width="18" height="18" viewBox="0 0 18 18" fill="none" xmlns="http://www.w3.org/2000/svg">
    <g clip-path="url(#clip0)">
        <path d="M17.9548 15.4238C17.8757 15.0437 17.5034 14.7997 17.1232 14.8788C16.743 14.9579 16.499 15.3303 16.5781 15.7104C16.6237 15.9294 16.5694 16.1539 16.4292 16.3264C16.348 16.4262 16.1669 16.5938 15.8667 16.5938H2.13421C1.83405 16.5938 1.65296 16.4262 1.57175 16.3264C1.43151 16.1539 1.37723 15.9294 1.42283 15.7104C2.15253 12.2055 5.244 9.64526 8.81408 9.55891C8.87592 9.56131 8.93804 9.5625 9.00048 9.5625C9.06313 9.5625 9.12549 9.56127 9.18758 9.55888C11.7024 9.61921 14.0268 10.893 15.4344 12.9922C15.6506 13.3148 16.0874 13.4009 16.41 13.1847C16.7325 12.9684 16.8187 12.5317 16.6024 12.2091C15.4487 10.4884 13.7734 9.23723 11.8632 8.60854C13.0272 7.73564 13.7817 6.34489 13.7817 4.78125C13.7817 2.14488 11.6369 0 9.00048 0C6.36407 0 4.21923 2.14488 4.21923 4.78125C4.21923 6.34584 4.97466 7.73733 6.13992 8.61015C5.07229 8.96164 4.07052 9.50857 3.19372 10.2298C1.58595 11.5522 0.468088 13.3969 0.0461076 15.4238C-0.0861503 16.059 0.072299 16.7113 0.480744 17.2136C0.887186 17.7134 1.48987 18 2.13421 18H15.8667C16.5111 18 17.1138 17.7134 17.5202 17.2136C17.9287 16.7113 18.0871 16.059 17.9548 15.4238ZM5.62548 4.78125C5.62548 2.92025 7.13948 1.40625 9.00048 1.40625C10.8615 1.40625 12.3755 2.92025 12.3755 4.78125C12.3755 6.58494 10.9532 8.0627 9.1713 8.15196C9.11445 8.15091 9.0575 8.15038 9.00048 8.15038C8.94374 8.15038 8.88699 8.15094 8.83032 8.152C7.04807 8.06309 5.62548 6.58519 5.62548 4.78125Z" fill="#6F6F6F"/>
    </g>
    <defs>
        <clipPath id="clip0">
            <rect width="18" height="18" fill="white"/>
        </clipPath>
    </defs>
</svg>
