<svg width="23" height="23" viewBox="0 0 23 23" fill="none" xmlns="http://www.w3.org/2000/svg">
    <path d="M19.6318 3.36824C17.4597 1.19618 14.5718 0 11.5 0C8.42824 0 5.54035 1.19618 3.36824 3.36824C1.19613 5.5403 0 8.42824 0 11.5C0 14.5718 1.19618 17.4597 3.36824 19.6318C5.5403 21.8039 8.42824 23 11.5 23C14.5718 23 17.4597 21.8038 19.6318 19.6318C21.8039 17.4597 23 14.5718 23 11.5C23 8.42824 21.8038 5.54035 19.6318 3.36824ZM19.536 17.5491C18.8482 17.0837 18.1283 16.6815 17.3819 16.3457C17.7116 15.0602 17.9073 13.6644 17.9562 12.2188H21.5365C21.3953 14.2104 20.6721 16.0437 19.536 17.5491ZM1.46346 12.2188H5.04383C5.0927 13.6645 5.28847 15.0602 5.61811 16.3457C4.87169 16.6815 4.15177 17.0837 3.46402 17.5491C2.32794 16.0437 1.6047 14.2104 1.46346 12.2188ZM3.46384 5.45109C4.15159 5.91657 4.87151 6.31876 5.61802 6.65455C5.28838 7.93999 5.09266 9.33562 5.04378 10.7812H1.46346C1.6047 8.78968 2.3279 6.95651 3.46384 5.45109ZM16.2 3.53827C15.9367 3.04449 15.6521 2.59891 15.3494 2.20351C16.5654 2.70888 17.6617 3.44596 18.5828 4.35962C18.0606 4.70274 17.518 5.00511 16.9586 5.26637C16.7391 4.65256 16.4857 4.07383 16.2 3.53827ZM15.6176 5.80251C14.3054 6.24239 12.9206 6.46875 11.5 6.46875C10.0794 6.46875 8.69458 6.24239 7.38237 5.80251C8.30161 3.18568 9.82042 1.4375 11.5 1.4375C13.1796 1.4375 14.6984 3.18568 15.6176 5.80251ZM6.48236 10.7812C6.5298 9.50807 6.70181 8.29163 6.97367 7.18229C8.41728 7.66044 9.93932 7.90625 11.5 7.90625C13.0607 7.90625 14.5827 7.66044 16.0263 7.18229C16.2982 8.29163 16.4702 9.50803 16.5176 10.7812H6.48236ZM16.5176 12.2188C16.4702 13.492 16.2982 14.7085 16.0263 15.8179C14.5825 15.3397 13.0605 15.0938 11.5 15.0938C9.93946 15.0938 8.41746 15.3397 6.97372 15.8179C6.7018 14.7085 6.5298 13.492 6.48236 12.2188H16.5176ZM6.79996 3.53827C6.51435 4.07383 6.2609 4.65256 6.04136 5.26633C5.482 5.00511 4.93943 4.70269 4.41721 4.35958C5.33825 3.44587 6.43452 2.70883 7.65055 2.20346C7.34792 2.59891 7.06329 3.04449 6.79996 3.53827ZM6.04141 17.7339C6.2609 18.3476 6.51435 18.9263 6.79991 19.4617C7.06329 19.9555 7.34787 20.4011 7.65051 20.7965C6.43461 20.2911 5.33843 19.5542 4.41744 18.6406C4.93965 18.2975 5.48213 17.9952 6.04141 17.7339ZM7.38246 17.1977C8.69476 16.7577 10.0796 16.5312 11.5 16.5312C12.9204 16.5312 14.3052 16.7577 15.6175 17.1977C14.6983 19.8144 13.1795 21.5625 11.5 21.5625C9.82046 21.5625 8.3017 19.8144 7.38246 17.1977ZM16.2 19.4617C16.4856 18.9263 16.7391 18.3476 16.9585 17.7339C17.5179 17.9952 18.0603 18.2976 18.5825 18.6406C17.6615 19.5542 16.5653 20.2912 15.3494 20.7965C15.6521 20.4011 15.9367 19.9555 16.2 19.4617ZM17.9562 10.7812C17.9073 9.33566 17.7116 7.93999 17.3819 6.65455C18.1284 6.31876 18.8484 5.91657 19.5361 5.45109C20.6721 6.95647 21.3953 8.78964 21.5365 10.7812H17.9562Z" fill="#4B5CDA"/>
</svg>
